<svg width="97" height="97" viewBox="0 0 97 97" fill="none" xmlns="http://www.w3.org/2000/svg">
<circle cx="48.5" cy="48.5" r="48.5" fill="#3B7600"/>
<path d="M59.38 57.92C59.38 59.32 59.16 60.6 58.72 61.76C58.32 62.92 57.72 63.94 56.92 64.82C56.16 65.7 55.24 66.44 54.16 67.04C53.08 67.6 51.86 68.02 50.5 68.3V71.96C50.5 72.64 50.44 73.28 50.32 73.88C50.2 74.48 49.9 74.96 49.42 75.32C48.94 75.68 48.18 75.86 47.14 75.86C46.1 75.86 45.34 75.66 44.86 75.26C44.38 74.9 44.08 74.42 43.96 73.82C43.88 73.22 43.84 72.58 43.84 71.9V68.24C42.8 68.04 41.8 67.72 40.84 67.28C39.92 66.84 39.06 66.3 38.26 65.66C37.5 65.02 36.84 64.32 36.28 63.56C35.52 62.48 35.16 61.56 35.2 60.8C35.28 60.04 35.86 59.16 36.94 58.16C37.66 57.56 38.34 57.24 38.98 57.2C39.62 57.12 40.24 57.26 40.84 57.62C41.44 57.98 41.98 58.48 42.46 59.12C43.1 59.96 43.78 60.58 44.5 60.98C45.26 61.38 46.1 61.58 47.02 61.58C48.06 61.58 48.92 61.46 49.6 61.22C50.32 60.94 50.84 60.54 51.16 60.02C51.52 59.46 51.7 58.8 51.7 58.04C51.7 57.12 51.24 56.44 50.32 56C49.4 55.56 48.22 55.16 46.78 54.8C45.38 54.4 43.96 53.9 42.52 53.3C41.64 52.9 40.8 52.46 40 51.98C39.2 51.46 38.48 50.84 37.84 50.12C37.24 49.4 36.76 48.54 36.4 47.54C36.04 46.54 35.86 45.36 35.86 44C35.86 42.72 36.04 41.56 36.4 40.52C36.76 39.44 37.28 38.5 37.96 37.7C38.68 36.9 39.52 36.24 40.48 35.72C41.48 35.16 42.6 34.76 43.84 34.52V31.28C43.84 30.6 43.88 29.98 43.96 29.42C44.08 28.82 44.38 28.34 44.86 27.98C45.34 27.58 46.1 27.38 47.14 27.38C48.18 27.38 48.94 27.58 49.42 27.98C49.9 28.34 50.2 28.82 50.32 29.42C50.44 30.02 50.5 30.66 50.5 31.34V34.46C51.62 34.62 52.6 34.94 53.44 35.42C54.32 35.9 55.18 36.5 56.02 37.22C56.98 38.06 57.5 38.8 57.58 39.44C57.66 40.04 57.3 40.9 56.5 42.02C55.98 42.82 55.44 43.38 54.88 43.7C54.32 44.02 53.74 44.12 53.14 44C52.58 43.88 51.96 43.58 51.28 43.1C50.96 42.82 50.6 42.54 50.2 42.26C49.8 41.98 49.34 41.76 48.82 41.6C48.3 41.4 47.64 41.3 46.84 41.3C46.32 41.3 45.86 41.38 45.46 41.54C45.06 41.66 44.7 41.84 44.38 42.08C44.1 42.32 43.86 42.62 43.66 42.98C43.5 43.3 43.42 43.66 43.42 44.06C43.42 44.9 43.74 45.54 44.38 45.98C45.02 46.42 45.86 46.78 46.9 47.06C47.98 47.34 49.12 47.64 50.32 47.96C51.4 48.24 52.46 48.6 53.5 49.04C54.58 49.44 55.56 50 56.44 50.72C57.32 51.44 58.02 52.38 58.54 53.54C59.1 54.7 59.38 56.16 59.38 57.92Z" fill="white"/>
</svg>
