<svg width="72" height="72" viewBox="0 0 72 72" fill="none" xmlns="http://www.w3.org/2000/svg">
<circle cx="36" cy="36" r="36" fill="#3B7600"/>
<path d="M33.6809 44.7729C33.3371 44.714 33.0182 44.5749 32.7326 44.3708L32.7182 44.3605L32.7041 44.3497C32.3948 44.1118 32.132 43.8224 31.9123 43.4929C31.6955 43.1675 31.5252 42.8144 31.3996 42.4374L31.3915 42.4133L31.3847 42.3888C31.282 42.0187 31.2245 41.6476 31.2245 41.2794C31.2245 40.8612 31.3113 40.4393 31.534 40.0575L31.5491 40.0316L31.5657 40.0067C31.9059 39.4964 32.4366 39.2643 32.992 39.2643H33.6809V24.8627C32.3747 24.9981 31.1732 25.2218 30.074 25.5305C28.7169 25.9117 27.5781 26.483 26.6388 27.2314C25.7217 27.9623 24.9918 28.9236 24.4567 30.1415C23.9499 31.3155 23.6733 32.8365 23.6733 34.7433C23.6733 35.5507 23.7491 36.2609 23.8918 36.8802C24.0577 37.5102 24.2647 38.0667 24.5085 38.5544C24.7628 39.0629 25.0328 39.4991 25.3157 39.8682C25.5277 40.1303 25.734 40.3699 25.9347 40.5876C26.276 40.6108 26.6432 40.744 26.9288 41.1111L26.1394 41.725L26.9288 41.1111C27.2264 41.4938 27.3127 41.9453 27.3127 42.344C27.3127 42.822 27.2058 43.2936 27.0201 43.7511C26.8525 44.1875 26.6231 44.5923 26.3346 44.9633L26.326 44.9743L26.3172 44.9851C26.0248 45.34 25.6879 45.6459 25.3077 45.8994L25.2963 45.907L25.2962 45.9069C24.8747 46.1797 24.3997 46.3397 23.8864 46.3397C23.6701 46.3397 23.4567 46.3125 23.2478 46.2603L23.2316 46.2563L23.2156 46.2517C22.9268 46.1692 22.6867 46.0117 22.4962 45.8507C22.0506 45.52 21.5662 45.0331 21.049 44.4325L21.0402 44.4222L21.0403 44.4222C20.4714 43.7432 19.9458 42.9275 19.4583 41.9873C18.9612 41.0286 18.5424 39.9509 18.1972 38.7601L18.1961 38.7565C17.8378 37.5023 17.6625 36.1628 17.6625 34.7433C17.6625 29.645 19.2988 25.619 22.6809 22.8307L22.6829 22.829C26.052 20.0659 30.9142 18.7647 37.1072 18.7647C37.5774 18.7647 38.1597 18.7731 38.8521 18.7895H38.8527H38.8569H38.861H38.8652H38.8694H38.8735H38.8777H38.8819H38.886H38.8902H38.8944H38.8985H38.9027H38.9069H38.9111H38.9152H38.9194H38.9236H38.9278H38.9319H38.9361H38.9403H38.9445H38.9487H38.9529H38.957H38.9612H38.9654H38.9696H38.9738H38.978H38.9822H38.9864H38.9905H38.9947H38.9989H39.0031H39.0073H39.0115H39.0157H39.0199H39.0241H39.0283H39.0325H39.0367H39.0409H39.0451H39.0493H39.0535H39.0578H39.062H39.0662H39.0704H39.0746H39.0788H39.083H39.0872H39.0914H39.0957H39.0999H39.1041H39.1083H39.1125H39.1168H39.121H39.1252H39.1294H39.1336H39.1379H39.1421H39.1463H39.1505H39.1548H39.159H39.1632H39.1675H39.1717H39.1759H39.1802H39.1844H39.1886H39.1929H39.1971H39.2014H39.2056H39.2098H39.2141H39.2183H39.2226H39.2268H39.2311H39.2353H39.2396H39.2438H39.2481H39.2523H39.2566H39.2608H39.2651H39.2693H39.2736H39.2778H39.2821H39.2863H39.2906H39.2949H39.2991H39.3034H39.3076H39.3119H39.3162H39.3204H39.3247H39.329H39.3332H39.3375H39.3418H39.3461H39.3503H39.3546H39.3589H39.3632H39.3674H39.3717H39.376H39.3803H39.3845H39.3888H39.3931H39.3974H39.4017H39.406H39.4102H39.4145H39.4188H39.4231H39.4274H39.4317H39.436H39.4403H39.4446H39.4489H39.4531H39.4574H39.4617H39.466H39.4703H39.4746H39.4789H39.4832H39.4875H39.4918H39.4962H39.5005H39.5048H39.5091H39.5134H39.5177H39.522H39.5263H39.5306H39.5349H39.5392H39.5436H39.5479H39.5522H39.5565H39.5608H39.5652H39.5695H39.5738H39.5781H39.5824H39.5868H39.5911H39.5954H39.5997H39.6041H39.6084H39.6127H39.6171H39.6214H39.6257H39.6301H39.6344H39.6387H39.6431H39.6474H39.6517H39.6561H39.6604H39.6648H39.6691H39.6734H39.6778H39.6821H39.6865H39.6908H39.6952H39.6995H39.7039H39.7082H39.7126H39.7169H39.7213H39.7256H39.73H39.7344H39.7387H39.7431H39.7474H39.7518H39.7561H39.7605H39.7649H39.7692H39.7736H39.778H39.7823H39.7867H39.7911H39.7954H39.7998H39.8042H39.8086H39.8129H39.8173H39.8217H39.8261H39.8304H39.8348H39.8392H39.8436H39.8479H39.8523H39.8567H39.8611H39.8655H39.8699H39.8743H39.8786H39.883H39.8874H39.8918H39.8962H39.9006H39.905H39.9094H39.9138H39.9182H39.9226H39.927H39.9314H39.9358H39.9402H39.9446H39.949H39.9534H39.9578H39.9622H39.9666H39.971H39.9754H39.9798H39.9842H39.9886H39.9931H39.9975H40.0019H40.0063H40.0107H40.0151H40.0195H40.024H40.0284H40.0328H40.0372H40.0416H40.0461H40.0505H40.0549H40.0593H40.0638H40.0682H40.0726H40.0771H40.0815H40.0859H40.0904H40.0948H40.0992H40.1037H40.1081H40.1125H40.117H40.1214H40.1259H40.1303H40.1347H40.1392H40.1436H40.1481H40.1525H40.157H40.1614H40.1659H40.1703H40.1748H40.1792H40.1837H40.1881H40.1926H40.197H40.2015H40.2059H40.2104H40.2149H40.2193H40.2238H40.2282H40.2327H40.2372H40.2416H40.2461H40.2506H40.255H40.2595H40.264H40.2684H40.2729H40.2774H40.2819H40.2863H40.2908H40.2953H40.2998H40.3042H40.3087H40.3132H40.3177H40.3222H40.3267H40.3311H40.3356H40.3401H40.3446H40.3491H40.3536H40.3581H40.3626H40.367H40.3715H40.376H40.3805H40.385H40.3895H40.394H40.3985H40.403H40.4075H40.412H40.4165H40.421H40.4255H40.43H40.4345H40.439H40.4435H40.4481H40.4526H40.4571H40.4616H40.4661H40.4706H40.4751H40.4796H40.4842H40.4887H40.4932H40.4977H40.5022H40.5067H40.5113H40.5158H40.5203H40.5248H40.5294H40.5339H40.5384H40.5429H40.5475H40.552H40.5565H40.5611H40.5656H40.5701H40.5747H40.5792H40.5837H40.5883H40.5928H40.5974H40.6019H40.6064H40.611H40.6155H40.6201H40.6246H40.6292H40.6337H40.6383H40.6428H40.6474H40.6519H40.6565H40.661H40.6656H40.6701H40.6747H40.6792H40.6838H40.6884H40.6929H40.6975H40.702H40.7066H40.7112H40.7157H40.7203H40.7249H40.7294H40.734H40.7386H40.7431H40.7477H40.7523H40.7568H40.7614H40.766H40.7706H40.7751H40.7797H40.7843H40.7889H40.7935H40.798H40.8026H40.8072H40.8118H40.8164H40.821H40.8255H40.8301H40.8347H40.8393H40.8439H40.8485H40.8531H40.8577H40.8623H40.8669H40.8715H40.8761H40.8807H40.8853H40.8899H40.8945H40.8991H40.9037H40.9083H40.9129H40.9175H40.9221H40.9267H40.9313H40.9359H40.9405H40.9451H40.9497H40.9544H40.959H40.9636H40.9682H40.9728H40.9774H40.9821H40.9867H40.9913H40.9959H41.0005H41.0052H41.0098H41.0144H41.019H41.0237H41.0283H41.0329H41.0376H41.0422H41.0468H41.0515H41.0561H41.0607H41.0654H41.07H41.0746H41.0793H41.0839H41.0886H41.0932C41.8923 18.7895 42.6994 18.7978 43.5147 18.8145L33.6809 44.7729ZM33.6809 44.7729V51.7767C33.6809 53.0429 33.571 53.8373 33.4185 54.2595L33.4157 54.2671L33.4131 54.2748C33.3792 54.3736 33.3482 54.4321 33.3279 54.4641C33.3093 54.4626 33.2946 54.4601 33.2833 54.4575C33.1637 54.4187 33.0424 54.3856 32.9211 54.3613L32.824 54.3419H32.725C32.484 54.3419 32.2285 54.405 31.997 54.5593L31.8306 54.6703L31.7197 54.8367C31.5807 55.0452 31.5413 55.2589 31.5262 55.3569C31.5073 55.4796 31.5022 55.6031 31.5022 55.7133C31.5022 56.2374 31.7225 56.72 31.9856 57.1248L31.995 57.1392L32.0048 57.1532C32.2788 57.5446 32.6047 57.9165 32.9771 58.2703L32.9859 58.2787L32.9949 58.2869C33.3923 58.6464 33.8149 58.9548 34.2631 59.2082C34.7371 59.4761 35.2546 59.6594 35.795 59.6594C36.4036 59.6594 36.9729 59.4863 37.4799 59.1506C38.0293 58.7982 38.4402 58.279 38.7443 57.6707C39.0504 57.0585 39.2624 56.313 39.4041 55.4666C39.5662 54.5974 39.6422 53.5781 39.6422 52.4204V44.8047H44.5098C45.1556 44.8047 45.6021 44.4118 45.8682 44.0393C46.0908 43.7277 46.2686 43.3777 46.4089 42.9996C46.5668 42.602 46.6752 42.1875 46.7355 41.7584C46.8083 41.3493 46.8366 40.9465 46.7931 40.5665C46.7646 40.1862 46.6383 39.6637 46.1744 39.3158C45.8111 39.0433 45.3995 39.0297 45.0843 39.1085C44.9408 39.1443 44.8086 39.2003 44.6896 39.2643H39.6422V24.7062C39.8774 24.7127 40.1215 24.7192 40.3743 24.7257L40.3872 24.726H40.4C41.0351 24.726 41.6788 24.7342 42.3309 24.7505L42.3434 24.7508H42.3559C43.0244 24.7508 43.6846 24.7589 44.3363 24.7752L44.3487 24.7755H44.3612C45.0134 24.7755 45.6055 24.7837 46.1383 24.7998L46.1534 24.8003H46.1686C46.7211 24.8003 47.185 24.8084 47.5629 24.8242L47.5837 24.825H47.6045H47.6069H47.6092H47.6115H47.6138H47.6161H47.6184H47.6207H47.623H47.6253H47.6276H47.6299H47.6322H47.6345H47.6368H47.639H47.6413H47.6436H47.6459H47.6481H47.6504H47.6527H47.6549H47.6572H47.6594H47.6617H47.6639H47.6662H47.6684H47.6707H47.6729H47.6751H47.6774H47.6796H47.6818H47.684H47.6863H47.6885H47.6907H47.6929H47.6951H47.6973H47.6995H47.7017H47.7039H47.7061H47.7083H47.7105H47.7127H47.7149H47.717H47.7192H47.7214H47.7236H47.7257H47.7279H47.7301H47.7322H47.7344H47.7365H47.7387H47.7408H47.743H47.7451H47.7473H47.7494H47.7516H47.7537H47.7558H47.7579H47.7601H47.7622H47.7643H47.7664H47.7685H47.7706H47.7728H47.7749H47.777H47.7791H47.7812H47.7832H47.7853H47.7874H47.7895H47.7916H47.7937H47.7957H47.7978H47.7999H47.802H47.804H47.8061H47.8081H47.8102H47.8123H47.8143H47.8163H47.8184H47.8204H47.8225H47.8245H47.8265H47.8286H47.8306H47.8326H47.8346H47.8367H47.8387H47.8407H47.8427H47.8447H47.8467H47.8487H47.8507H47.8527H47.8547H47.8567H47.8587H47.8607H47.8627H47.8646H47.8666H47.8686H47.8706H47.8725H47.8745H47.8765H47.8784H47.8804H47.8823H47.8843H47.8862H47.8882H47.8901H47.8921H47.894H47.8959H47.8979H47.8998H47.9017H47.9036H47.9056H47.9075H47.9094H47.9113H47.9132H47.9151H47.917H47.9189H47.9208H47.9227H47.9246H47.9265H47.9284H47.9303H47.9321H47.934H47.9359H47.9378H47.9396H47.9415H47.9434H47.9452H47.9471H47.9489H47.9508H47.9526H47.9545H47.9563H47.9582H47.96H47.9618H47.9637H47.9655H47.9673H47.9692H47.971H47.9728H47.9746H47.9764H47.9782H47.98H47.9818H47.9836H47.9854H47.9872H47.989H47.9908H47.9926H47.9944H47.9962H47.998H47.9997H48.0015H48.0033H48.005H48.0068H48.0086H48.0103H48.0121H48.0138H48.0156H48.0173H48.0191H48.0208H48.0226H48.0243H48.026H48.0278H48.0295H48.0312H48.0329H48.0346H48.0364H48.0381H48.0398H48.0415H48.0432H48.0449H48.0466H48.0483H48.05H48.0517H48.0534H48.0551H48.0567H48.0584H48.0601H48.0618H48.0634H48.0651H48.0668H48.0684H48.0701H48.0717H48.0734H48.0751H48.0767H48.0783H48.08H48.0816H48.0833H48.0849H48.0865H48.0882H48.0898H48.0914H48.093H48.0946H48.0963H48.0979H48.0995H48.1011H48.1027H48.1043H48.1059H48.1075H48.1091H48.1107H48.1122H48.1138H48.1154H48.117H48.1186H48.1201H48.1217H48.1233H48.1248H48.1264H48.1279H48.1295H48.1311H48.1326H48.1341H48.1357H48.1372H48.1388H48.1403H48.1418H48.1434H48.1449H48.1464H48.1479H48.1495H48.151H48.1525H48.154H48.1555H48.157H48.1585H48.16H48.1615H48.163H48.1645H48.166H48.1674H48.1689H48.1704H48.1719H48.1734H48.1748H48.1763H48.1778H48.1792H48.1807H48.1821H48.1836H48.185H48.1865H48.1879H48.1894H48.1908H48.1922H48.1937H48.1951H48.1965H48.198H48.1994H48.2008H48.2022H48.2036H48.205H48.2064H48.2078H48.2092H48.2106H48.212H48.2134H48.2148H48.2162H48.2176H48.219H48.2204H48.2217H48.2231H48.2245H48.2258H48.2272H48.2286H48.2299H48.2313H48.2326H48.234H48.2353H48.2367H48.238H48.2394H48.2407H48.242H48.2434H48.2447H48.246H48.2473H48.2487H48.25H48.2513H48.2526H48.2539H48.2552H48.2565H48.2578H48.2591H48.2604H48.2617H48.263H48.2643H48.2656H48.2668H48.2681H48.2694H48.2707H48.2719H48.2732H48.2745H48.2757H48.277H48.2782H48.2795H48.2807H48.282H48.2832H48.2845H48.2857H48.2869H48.2882H48.2894H48.2906H48.2918H48.2931H48.2943H48.2955H48.2967H48.2979H48.2991H48.3003H48.3015H48.3027H48.3039H48.3051H48.3063H48.3075H48.3087H48.3098H48.311H48.3122H48.3134H48.3145H48.3157H48.3169H48.318H48.3192H48.3203H48.3215H48.3226H48.3238H48.3249H48.3261H48.3272H48.3283H48.3295H48.3306H48.3317H48.3329H48.334H48.3351H48.3362H48.3373H48.3384H48.3395H48.3406H48.3417H48.3428H48.3439H48.345H48.3461H48.3472H48.3483H48.3494H48.3505H48.3515H48.3526H48.3537H48.3547H48.3558H48.3569H48.3579H48.359H48.36H48.3611H48.3621H48.3632H48.3642H48.3653H48.3663H48.3673H48.3684H48.3694H48.3704H48.3714H48.3725H48.3735H48.3745H48.3755H48.3765H48.3775H48.3785H48.3795H48.3805H48.3815H48.3825H48.3835H48.3845H48.3854H48.3864H48.3874H48.3884H48.3893H48.3903H48.3913H48.3922H48.3932H48.3942H48.3951H48.3961H48.397H48.398H48.3989H48.3998H48.4008H48.4017H48.4026H48.4036H48.4045H48.4054H48.4063H48.4073H48.4082H48.4091H48.41H48.4109H48.4118H48.4127H48.4136H48.4145H48.4154H48.4163H48.4172H48.418H48.4189H48.4198H48.4207H48.4215C48.9531 24.825 49.4709 24.7144 49.9325 24.4459C50.3307 24.2231 50.6776 23.9365 50.9602 23.5832L50.97 23.571L50.9794 23.5585C51.2499 23.1977 51.4462 22.7977 51.5628 22.3635C51.6824 21.9599 51.7488 21.5544 51.7488 21.1512C51.7488 20.8823 51.7167 20.6159 51.6542 20.3536C51.6112 20.1109 51.5453 19.873 51.4477 19.6489C51.3613 19.4364 51.2482 19.2208 51.0944 19.0289C50.9444 18.8282 50.6073 18.4677 50.0556 18.4677C49.7316 18.4677 49.4826 18.6023 49.3362 18.7031C49.3362 18.7031 49.3361 18.7032 49.336 18.7032C49.3172 18.7126 49.2865 18.727 49.2408 18.7466L49.2138 18.7581L49.1875 18.7713C49.1635 18.7833 49.1061 18.8077 49.0018 18.8408C48.9205 18.8534 48.7965 18.8638 48.6196 18.8638H48.6185H48.6175H48.6164H48.6153H48.6142H48.6132H48.6121H48.611H48.6099H48.6088H48.6077H48.6066H48.6055H48.6043H48.6032H48.6021H48.601H48.5998H48.5987H48.5976H48.5964H48.5953H48.5941H48.593H48.5918H48.5907H48.5895H48.5883H48.5872H48.586H48.5848H48.5836H48.5824H48.5813H48.5801H48.5789H48.5777H48.5765H48.5752H48.574H48.5728H48.5716H48.5704H48.5691H48.5679H48.5667H48.5654H48.5642H48.5629H48.5617H48.5604H48.5592H48.5579H48.5567H48.5554H48.5541H48.5528H48.5516H48.5503H48.549H48.5477H48.5464H48.5451H48.5438H48.5425H48.5412H48.5399H48.5385H48.5372H48.5359H48.5346H48.5332H48.5319H48.5305H48.5292H48.5278H48.5265H48.5251H48.5238H48.5224H48.521H48.5197H48.5183H48.5169H48.5155H48.5142H48.5128H48.5114H48.51H48.5086H48.5072H48.5058H48.5043H48.5029H48.5015H48.5001H48.4986H48.4972H48.4958H48.4943H48.4929H48.4914H48.49H48.4885H48.4871H48.4856H48.4842H48.4827H48.4812H48.4797H48.4783H48.4768H48.4753H48.4738H48.4723H48.4708H48.4693H48.4678H48.4663H48.4648H48.4632H48.4617H48.4602H48.4587H48.4571H48.4556H48.454H48.4525H48.4509H48.4494H48.4478H48.4463H48.4447H48.4431H48.4416H48.44H48.4384H48.4368H48.4352H48.4337H48.4321H48.4305H48.4289H48.4273H48.4256H48.424H48.4224H48.4208H48.4192H48.4175H48.4159H48.4143H48.4126H48.411H48.4093H48.4077H48.406H48.4044H48.4027H48.401H48.3994H48.3977H48.396H48.3943H48.3927H48.391H48.3893H48.3876H48.3859H48.3842H48.3825H48.3808H48.379H48.3773H48.3756H48.3739H48.3721H48.3704H48.3687H48.3669H48.3652H48.3634H48.3617H48.3599H48.3582H48.3564H48.3546H48.3529H48.3511H48.3493H48.3475H48.3457H48.3439H48.3421H48.3403H48.3385H48.3367H48.3349H48.3331H48.3313H48.3295H48.3276H48.3258H48.324H48.3221H48.3203H48.3185H48.3166H48.3148H48.3129H48.311H48.3092H48.3073H48.3054H48.3036H48.3017H48.2998H48.2979H48.296H48.2941H48.2923H48.2903H48.2884H48.2865H48.2846H48.2827H48.2808H48.2789H48.2769H48.275H48.2731H48.2711H48.2692H48.2672H48.2653H48.2633H48.2614H48.2594H48.2575H48.2555H48.2535H48.2515H48.2496H48.2476H48.2456H48.2436H48.2416H48.2396H48.2376H48.2356H48.2336H48.2316H48.2296H48.2275H48.2255H48.2235H48.2214H48.2194H48.2174H48.2153H48.2133H48.2112H48.2092H48.2071H48.2051H48.203H48.2009H48.1988H48.1968H48.1947H48.1926H48.1905H48.1884H48.1863H48.1842H48.1821H48.18H48.1779H48.1758H48.1737H48.1715H48.1694H48.1673H48.1651H48.163H48.1609H48.1587H48.1566H48.1544H48.1522H48.1501H48.1479H48.1458H48.1436H48.1414H48.1392H48.137H48.1349H48.1327H48.1305H48.1283H48.1261H48.1239H48.1216H48.1194H48.1172H48.115H48.1128H48.1105H48.1083H48.1061H48.1038H48.1016H48.0993H48.0971H48.0948H48.0926H48.0903H48.088H48.0858H48.0835H48.0812H48.0789H48.0766H48.0744H48.0721H48.0698H48.0675H48.0652H48.0629H48.0605H48.0582H48.0559H48.0536H48.0513H48.0489H48.0466H48.0442H48.0419H48.0396H48.0372H48.0349H48.0325H48.0301H48.0278H48.0254H48.023H48.0207H48.0183H48.0159H48.0135H48.0111H48.0087H48.0063H48.0039H48.0015H47.9991H47.9967H47.9943H47.9918H47.9894H47.987H47.9845H47.9821H47.9797H47.9772H47.9748H47.9723H47.9699H47.9674H47.9649H47.9625H47.96H47.9575H47.9551H47.9526H47.9501H47.9476H47.9451H47.9426H47.9401H47.9376H47.9351H47.9326H47.9301H47.9275H47.925H47.9225H47.92H47.9174H47.9149H47.9123H47.9098H47.9072H47.9047H47.9021H47.8996H47.897H47.8944H47.8919H47.8893H47.8867H47.8841H47.8815H47.8789H47.8763H47.8737H47.8711H47.8685H47.8659H47.8633H47.8607H47.8581H47.8554H47.8528H47.8502H47.8475H47.8449H47.8423H47.8396H47.837H47.8343H47.8316H47.829H47.8263H47.8236H47.821H47.8183H47.8156H47.8129H47.8102H47.8075H47.8048H47.8021H47.7994H47.7967H47.794H47.7913H47.7886H47.7858H47.7831H47.7804H47.7776H47.7749H47.7722H47.7694H47.7667H47.7639H47.7612H47.7584H47.7556H47.7529H47.7501H47.7473H47.7445H47.7417H47.739H47.7362H47.7334H47.7306H47.7278H47.725H47.7221H47.7193H47.7165H47.7137H47.7109H47.708H47.7052H47.7024H47.6995H47.6967H47.6938H47.691H47.6881H47.6853H47.6824H47.6795H47.6767H47.6738H47.6709H47.668H47.6651H47.6622H47.6593H47.6564H47.6535H47.6506H47.6477H47.6448H47.6419H47.639H47.6361H47.6331H47.6302H47.6273H47.6243H47.6214H47.6184H47.6155H47.6125H47.6096H47.6066H47.6036H47.6007H47.5977H47.5963C47.0898 18.8472 46.4811 18.839 45.7724 18.839C45.0871 18.839 44.3348 18.8309 43.5151 18.8145L33.6809 44.7729Z" fill="white" stroke="white" stroke-width="2"/>
</svg>
