<?xml version="1.0" encoding="UTF-8" standalone="no"?>
<!-- Created with Inkscape (http://www.inkscape.org/) -->

<svg
   xmlns:dc="http://purl.org/dc/elements/1.1/"
   xmlns:cc="http://creativecommons.org/ns#"
   xmlns:rdf="http://www.w3.org/1999/02/22-rdf-syntax-ns#"
   xmlns:svg="http://www.w3.org/2000/svg"
   xmlns="http://www.w3.org/2000/svg"
   xmlns:sodipodi="http://sodipodi.sourceforge.net/DTD/sodipodi-0.dtd"
   xmlns:inkscape="http://www.inkscape.org/namespaces/inkscape"
   width="165.99377mm"
   height="71.237999mm"
   viewBox="0 0 165.99377 71.237999"
   version="1.1"
   id="svg1086"
   inkscape:version="0.92.5 (2060ec1f9f, 2020-04-08)"
   sodipodi:docname="logo2.svg">
  <defs
     id="defs1080">
    <clipPath
       clipPathUnits="userSpaceOnUse"
       id="clipPath1987">
      <rect
         style="fill:#ffffff;stroke:none;stroke-width:0.99170631"
         id="rect1989"
         width="329.71478"
         height="137.50822"
         x="41.381001"
         y="505.08398" />
    </clipPath>
    <clipPath
       clipPathUnits="userSpaceOnUse"
       id="clipPath1991">
      <rect
         style="fill:#ffffff;stroke:none;stroke-width:0.99170631"
         id="rect1993"
         width="329.71478"
         height="137.50822"
         x="41.381001"
         y="505.08398" />
    </clipPath>
    <clipPath
       clipPathUnits="userSpaceOnUse"
       id="clipPath1995">
      <rect
         style="fill:#ffffff;stroke:none;stroke-width:0.99170631"
         id="rect1997"
         width="329.71478"
         height="137.50822"
         x="41.381001"
         y="505.08398" />
    </clipPath>
    <clipPath
       clipPathUnits="userSpaceOnUse"
       id="clipPath1999">
      <rect
         style="fill:#ffffff;stroke:none;stroke-width:0.99170631"
         id="rect2001"
         width="329.71478"
         height="137.50822"
         x="41.381001"
         y="505.08398" />
    </clipPath>
    <clipPath
       clipPathUnits="userSpaceOnUse"
       id="clipPath2003">
      <rect
         style="fill:#ffffff;stroke:none;stroke-width:0.99170631"
         id="rect2005"
         width="329.71478"
         height="137.50822"
         x="41.381001"
         y="505.08398" />
    </clipPath>
    <clipPath
       clipPathUnits="userSpaceOnUse"
       id="clipPath2007">
      <rect
         style="fill:#ffffff;stroke:none;stroke-width:0.99170631"
         id="rect2009"
         width="329.71478"
         height="137.50822"
         x="41.381001"
         y="505.08398" />
    </clipPath>
    <clipPath
       clipPathUnits="userSpaceOnUse"
       id="clipPath2011">
      <rect
         style="fill:#ffffff;stroke:none;stroke-width:0.99170631"
         id="rect2013"
         width="329.71478"
         height="137.50822"
         x="41.381001"
         y="505.08398" />
    </clipPath>
    <clipPath
       clipPathUnits="userSpaceOnUse"
       id="clipPath2015">
      <rect
         style="fill:#ffffff;stroke:none;stroke-width:0.99170631"
         id="rect2017"
         width="329.71478"
         height="137.50822"
         x="41.381001"
         y="505.08398" />
    </clipPath>
    <clipPath
       clipPathUnits="userSpaceOnUse"
       id="clipPath2019">
      <rect
         style="fill:#ffffff;stroke:none;stroke-width:0.99170631"
         id="rect2021"
         width="329.71478"
         height="137.50822"
         x="41.381001"
         y="505.08398" />
    </clipPath>
    <clipPath
       clipPathUnits="userSpaceOnUse"
       id="clipPath2023">
      <rect
         style="fill:#ffffff;stroke:none;stroke-width:0.99170631"
         id="rect2025"
         width="329.71478"
         height="137.50822"
         x="41.381001"
         y="505.08398" />
    </clipPath>
    <clipPath
       clipPathUnits="userSpaceOnUse"
       id="clipPath2027">
      <rect
         style="fill:#ffffff;stroke:none;stroke-width:0.99170631"
         id="rect2029"
         width="329.71478"
         height="137.50822"
         x="41.381001"
         y="505.08398" />
    </clipPath>
    <clipPath
       clipPathUnits="userSpaceOnUse"
       id="clipPath2031">
      <rect
         style="fill:#ffffff;stroke:none;stroke-width:0.99170631"
         id="rect2033"
         width="329.71478"
         height="137.50822"
         x="41.381001"
         y="505.08398" />
    </clipPath>
    <clipPath
       clipPathUnits="userSpaceOnUse"
       id="clipPath2035">
      <rect
         style="fill:#ffffff;stroke:none;stroke-width:0.99170631"
         id="rect2037"
         width="329.71478"
         height="137.50822"
         x="41.381001"
         y="505.08398" />
    </clipPath>
    <clipPath
       clipPathUnits="userSpaceOnUse"
       id="clipPath2039">
      <rect
         style="fill:#ffffff;stroke:none;stroke-width:0.99170631"
         id="rect2041"
         width="329.71478"
         height="137.50822"
         x="41.381001"
         y="505.08398" />
    </clipPath>
    <clipPath
       clipPathUnits="userSpaceOnUse"
       id="clipPath2043">
      <rect
         style="fill:#ffffff;stroke:none;stroke-width:0.99170631"
         id="rect2045"
         width="329.71478"
         height="137.50822"
         x="41.381001"
         y="505.08398" />
    </clipPath>
    <clipPath
       clipPathUnits="userSpaceOnUse"
       id="clipPath2047">
      <rect
         style="fill:#ffffff;stroke:none;stroke-width:0.99170631"
         id="rect2049"
         width="329.71478"
         height="137.50822"
         x="41.381001"
         y="505.08398" />
    </clipPath>
    <clipPath
       clipPathUnits="userSpaceOnUse"
       id="clipPath2051">
      <rect
         style="fill:#ffffff;stroke:none;stroke-width:0.99170631"
         id="rect2053"
         width="329.71478"
         height="137.50822"
         x="41.381001"
         y="505.08398" />
    </clipPath>
    <clipPath
       clipPathUnits="userSpaceOnUse"
       id="clipPath2055">
      <rect
         style="fill:#ffffff;stroke:none;stroke-width:0.99170631"
         id="rect2057"
         width="329.71478"
         height="137.50822"
         x="41.381001"
         y="505.08398" />
    </clipPath>
    <clipPath
       clipPathUnits="userSpaceOnUse"
       id="clipPath2059">
      <rect
         style="fill:#ffffff;stroke:none;stroke-width:0.99170631"
         id="rect2061"
         width="329.71478"
         height="137.50822"
         x="41.381001"
         y="505.08398" />
    </clipPath>
    <clipPath
       clipPathUnits="userSpaceOnUse"
       id="clipPath2063">
      <rect
         style="fill:#ffffff;stroke:none;stroke-width:0.99170631"
         id="rect2065"
         width="329.71478"
         height="137.50822"
         x="41.381001"
         y="505.08398" />
    </clipPath>
    <clipPath
       clipPathUnits="userSpaceOnUse"
       id="clipPath2067">
      <rect
         style="fill:#ffffff;stroke:none;stroke-width:0.99170631"
         id="rect2069"
         width="329.71478"
         height="137.50822"
         x="41.381001"
         y="505.08398" />
    </clipPath>
    <clipPath
       clipPathUnits="userSpaceOnUse"
       id="clipPath2071">
      <rect
         style="fill:#ffffff;stroke:none;stroke-width:0.99170631"
         id="rect2073"
         width="329.71478"
         height="137.50822"
         x="41.381001"
         y="505.08398" />
    </clipPath>
    <clipPath
       clipPathUnits="userSpaceOnUse"
       id="clipPath2075">
      <rect
         style="fill:#ffffff;stroke:none;stroke-width:0.99170631"
         id="rect2077"
         width="329.71478"
         height="137.50822"
         x="41.381001"
         y="505.08398" />
    </clipPath>
    <clipPath
       clipPathUnits="userSpaceOnUse"
       id="clipPath2079">
      <rect
         style="fill:#ffffff;stroke:none;stroke-width:0.99170631"
         id="rect2081"
         width="329.71478"
         height="137.50822"
         x="41.381001"
         y="505.08398" />
    </clipPath>
    <clipPath
       clipPathUnits="userSpaceOnUse"
       id="clipPath2083">
      <rect
         style="fill:#ffffff;stroke:none;stroke-width:0.99170631"
         id="rect2085"
         width="329.71478"
         height="137.50822"
         x="41.381001"
         y="505.08398" />
    </clipPath>
    <clipPath
       clipPathUnits="userSpaceOnUse"
       id="clipPath2087">
      <rect
         style="fill:#ffffff;stroke:none;stroke-width:0.99170631"
         id="rect2089"
         width="329.71478"
         height="137.50822"
         x="41.381001"
         y="505.08398" />
    </clipPath>
    <clipPath
       clipPathUnits="userSpaceOnUse"
       id="clipPath2091">
      <rect
         style="fill:#ffffff;stroke:none;stroke-width:0.99170631"
         id="rect2093"
         width="329.71478"
         height="137.50822"
         x="41.381001"
         y="505.08398" />
    </clipPath>
    <clipPath
       clipPathUnits="userSpaceOnUse"
       id="clipPath2095">
      <rect
         style="fill:#ffffff;stroke:none;stroke-width:0.99170631"
         id="rect2097"
         width="329.71478"
         height="137.50822"
         x="41.381001"
         y="505.08398" />
    </clipPath>
    <clipPath
       clipPathUnits="userSpaceOnUse"
       id="clipPath2099">
      <rect
         style="fill:#ffffff;stroke:none;stroke-width:0.99170631"
         id="rect2101"
         width="329.71478"
         height="137.50822"
         x="41.381001"
         y="505.08398" />
    </clipPath>
    <clipPath
       clipPathUnits="userSpaceOnUse"
       id="clipPath2103">
      <rect
         style="fill:#ffffff;stroke:none;stroke-width:0.99170631"
         id="rect2105"
         width="329.71478"
         height="137.50822"
         x="41.381001"
         y="505.08398" />
    </clipPath>
    <clipPath
       clipPathUnits="userSpaceOnUse"
       id="clipPath2107">
      <rect
         style="fill:#ffffff;stroke:none;stroke-width:0.99170631"
         id="rect2109"
         width="329.71478"
         height="137.50822"
         x="41.381001"
         y="505.08398" />
    </clipPath>
    <clipPath
       clipPathUnits="userSpaceOnUse"
       id="clipPath2111">
      <rect
         style="fill:#ffffff;stroke:none;stroke-width:0.99170631"
         id="rect2113"
         width="329.71478"
         height="137.50822"
         x="41.381001"
         y="505.08398" />
    </clipPath>
    <clipPath
       clipPathUnits="userSpaceOnUse"
       id="clipPath2115">
      <rect
         style="fill:#ffffff;stroke:none;stroke-width:0.99170631"
         id="rect2117"
         width="329.71478"
         height="137.50822"
         x="41.381001"
         y="505.08398" />
    </clipPath>
    <clipPath
       clipPathUnits="userSpaceOnUse"
       id="clipPath2119">
      <rect
         style="fill:#ffffff;stroke:none;stroke-width:0.99170631"
         id="rect2121"
         width="329.71478"
         height="137.50822"
         x="41.381001"
         y="505.08398" />
    </clipPath>
    <clipPath
       clipPathUnits="userSpaceOnUse"
       id="clipPath2123">
      <rect
         style="fill:#ffffff;stroke:none;stroke-width:0.99170631"
         id="rect2125"
         width="329.71478"
         height="137.50822"
         x="41.381001"
         y="505.08398" />
    </clipPath>
    <clipPath
       clipPathUnits="userSpaceOnUse"
       id="clipPath2127">
      <rect
         style="fill:#ffffff;stroke:none;stroke-width:0.99170631"
         id="rect2129"
         width="329.71478"
         height="137.50822"
         x="41.381001"
         y="505.08398" />
    </clipPath>
    <clipPath
       clipPathUnits="userSpaceOnUse"
       id="clipPath2131">
      <rect
         style="fill:#ffffff;stroke:none;stroke-width:0.99170631"
         id="rect2133"
         width="329.71478"
         height="137.50822"
         x="41.381001"
         y="505.08398" />
    </clipPath>
    <clipPath
       clipPathUnits="userSpaceOnUse"
       id="clipPath2135">
      <rect
         style="fill:#ffffff;stroke:none;stroke-width:0.99170631"
         id="rect2137"
         width="329.71478"
         height="137.50822"
         x="41.381001"
         y="505.08398" />
    </clipPath>
    <clipPath
       clipPathUnits="userSpaceOnUse"
       id="clipPath2139">
      <rect
         style="fill:#ffffff;stroke:none;stroke-width:0.99170631"
         id="rect2141"
         width="329.71478"
         height="137.50822"
         x="41.381001"
         y="505.08398" />
    </clipPath>
    <clipPath
       clipPathUnits="userSpaceOnUse"
       id="clipPath2143">
      <rect
         style="fill:#ffffff;stroke:none;stroke-width:0.99170631"
         id="rect2145"
         width="329.71478"
         height="137.50822"
         x="41.381001"
         y="505.08398" />
    </clipPath>
    <clipPath
       clipPathUnits="userSpaceOnUse"
       id="clipPath2147">
      <rect
         style="fill:#ffffff;stroke:none;stroke-width:0.99170631"
         id="rect2149"
         width="329.71478"
         height="137.50822"
         x="41.381001"
         y="505.08398" />
    </clipPath>
    <clipPath
       clipPathUnits="userSpaceOnUse"
       id="clipPath2151">
      <rect
         style="fill:#ffffff;stroke:none;stroke-width:0.99170631"
         id="rect2153"
         width="329.71478"
         height="137.50822"
         x="41.381001"
         y="505.08398" />
    </clipPath>
    <clipPath
       clipPathUnits="userSpaceOnUse"
       id="clipPath2155">
      <rect
         style="fill:#ffffff;stroke:none;stroke-width:0.99170631"
         id="rect2157"
         width="329.71478"
         height="137.50822"
         x="41.381001"
         y="505.08398" />
    </clipPath>
    <clipPath
       clipPathUnits="userSpaceOnUse"
       id="clipPath2159">
      <rect
         style="fill:#ffffff;stroke:none;stroke-width:0.99170631"
         id="rect2161"
         width="329.71478"
         height="137.50822"
         x="41.381001"
         y="505.08398" />
    </clipPath>
    <clipPath
       clipPathUnits="userSpaceOnUse"
       id="clipPath2163">
      <rect
         style="fill:#ffffff;stroke:none;stroke-width:0.99170631"
         id="rect2165"
         width="329.71478"
         height="137.50822"
         x="41.381001"
         y="505.08398" />
    </clipPath>
    <clipPath
       clipPathUnits="userSpaceOnUse"
       id="clipPath2167">
      <rect
         style="fill:#ffffff;stroke:none;stroke-width:0.99170631"
         id="rect2169"
         width="329.71478"
         height="137.50822"
         x="41.381001"
         y="505.08398" />
    </clipPath>
    <clipPath
       clipPathUnits="userSpaceOnUse"
       id="clipPath2171">
      <rect
         style="fill:#ffffff;stroke:none;stroke-width:0.99170631"
         id="rect2173"
         width="329.71478"
         height="137.50822"
         x="41.381001"
         y="505.08398" />
    </clipPath>
    <clipPath
       clipPathUnits="userSpaceOnUse"
       id="clipPath2175">
      <rect
         style="fill:#ffffff;stroke:none;stroke-width:0.99170631"
         id="rect2177"
         width="329.71478"
         height="137.50822"
         x="41.381001"
         y="505.08398" />
    </clipPath>
    <clipPath
       clipPathUnits="userSpaceOnUse"
       id="clipPath2179">
      <rect
         style="fill:#ffffff;stroke:none;stroke-width:0.99170631"
         id="rect2181"
         width="329.71478"
         height="137.50822"
         x="41.381001"
         y="505.08398" />
    </clipPath>
    <clipPath
       clipPathUnits="userSpaceOnUse"
       id="clipPath2183">
      <rect
         style="fill:#ffffff;stroke:none;stroke-width:0.99170631"
         id="rect2185"
         width="329.71478"
         height="137.50822"
         x="41.381001"
         y="505.08398" />
    </clipPath>
    <clipPath
       clipPathUnits="userSpaceOnUse"
       id="clipPath2187">
      <rect
         style="fill:#ffffff;stroke:none;stroke-width:0.99170631"
         id="rect2189"
         width="329.71478"
         height="137.50822"
         x="41.381001"
         y="505.08398" />
    </clipPath>
    <clipPath
       clipPathUnits="userSpaceOnUse"
       id="clipPath2191">
      <rect
         style="fill:#ffffff;stroke:none;stroke-width:0.99170631"
         id="rect2193"
         width="329.71478"
         height="137.50822"
         x="41.381001"
         y="505.08398" />
    </clipPath>
    <clipPath
       clipPathUnits="userSpaceOnUse"
       id="clipPath2195">
      <rect
         style="fill:#ffffff;stroke:none;stroke-width:0.99170631"
         id="rect2197"
         width="329.71478"
         height="137.50822"
         x="41.381001"
         y="505.08398" />
    </clipPath>
    <clipPath
       clipPathUnits="userSpaceOnUse"
       id="clipPath2199">
      <rect
         style="fill:#ffffff;stroke:none;stroke-width:0.99170631"
         id="rect2201"
         width="329.71478"
         height="137.50822"
         x="41.381001"
         y="505.08398" />
    </clipPath>
    <clipPath
       clipPathUnits="userSpaceOnUse"
       id="clipPath2203">
      <rect
         style="fill:#ffffff;stroke:none;stroke-width:0.99170631"
         id="rect2205"
         width="329.71478"
         height="137.50822"
         x="41.381001"
         y="505.08398" />
    </clipPath>
    <clipPath
       clipPathUnits="userSpaceOnUse"
       id="clipPath2207">
      <rect
         style="fill:#ffffff;stroke:none;stroke-width:0.99170631"
         id="rect2209"
         width="329.71478"
         height="137.50822"
         x="41.381001"
         y="505.08398" />
    </clipPath>
    <clipPath
       clipPathUnits="userSpaceOnUse"
       id="clipPath2211">
      <rect
         style="fill:#ffffff;stroke:none;stroke-width:0.99170631"
         id="rect2213"
         width="329.71478"
         height="137.50822"
         x="41.381001"
         y="505.08398" />
    </clipPath>
    <clipPath
       clipPathUnits="userSpaceOnUse"
       id="clipPath2215">
      <rect
         style="fill:#ffffff;stroke:none;stroke-width:0.99170631"
         id="rect2217"
         width="329.71478"
         height="137.50822"
         x="41.381001"
         y="505.08398" />
    </clipPath>
    <clipPath
       clipPathUnits="userSpaceOnUse"
       id="clipPath2219">
      <rect
         style="fill:#ffffff;stroke:none;stroke-width:0.99170631"
         id="rect2221"
         width="329.71478"
         height="137.50822"
         x="41.381001"
         y="505.08398" />
    </clipPath>
    <clipPath
       clipPathUnits="userSpaceOnUse"
       id="clipPath2223">
      <rect
         style="fill:#ffffff;stroke:none;stroke-width:0.99170631"
         id="rect2225"
         width="329.71478"
         height="137.50822"
         x="41.381001"
         y="505.08398" />
    </clipPath>
    <clipPath
       clipPathUnits="userSpaceOnUse"
       id="clipPath2227">
      <rect
         style="fill:#ffffff;stroke:none;stroke-width:0.99170631"
         id="rect2229"
         width="329.71478"
         height="137.50822"
         x="41.381001"
         y="505.08398" />
    </clipPath>
    <clipPath
       clipPathUnits="userSpaceOnUse"
       id="clipPath2231">
      <rect
         style="fill:#ffffff;stroke:none;stroke-width:0.99170631"
         id="rect2233"
         width="329.71478"
         height="137.50822"
         x="41.381001"
         y="505.08398" />
    </clipPath>
    <clipPath
       clipPathUnits="userSpaceOnUse"
       id="clipPath2235">
      <rect
         style="fill:#ffffff;stroke:none;stroke-width:0.99170631"
         id="rect2237"
         width="329.71478"
         height="137.50822"
         x="41.381001"
         y="505.08398" />
    </clipPath>
    <clipPath
       clipPathUnits="userSpaceOnUse"
       id="clipPath2239">
      <rect
         style="fill:#ffffff;stroke:none;stroke-width:0.99170631"
         id="rect2241"
         width="329.71478"
         height="137.50822"
         x="41.381001"
         y="505.08398" />
    </clipPath>
    <clipPath
       clipPathUnits="userSpaceOnUse"
       id="clipPath2243">
      <rect
         style="fill:#ffffff;stroke:none;stroke-width:0.99170631"
         id="rect2245"
         width="329.71478"
         height="137.50822"
         x="41.381001"
         y="505.08398" />
    </clipPath>
    <clipPath
       clipPathUnits="userSpaceOnUse"
       id="clipPath2247">
      <rect
         style="fill:#ffffff;stroke:none;stroke-width:0.99170631"
         id="rect2249"
         width="329.71478"
         height="137.50822"
         x="41.381001"
         y="505.08398" />
    </clipPath>
    <clipPath
       clipPathUnits="userSpaceOnUse"
       id="clipPath2251">
      <rect
         style="fill:#ffffff;stroke:none;stroke-width:0.99170631"
         id="rect2253"
         width="329.71478"
         height="137.50822"
         x="41.381001"
         y="505.08398" />
    </clipPath>
    <clipPath
       clipPathUnits="userSpaceOnUse"
       id="clipPath2255">
      <rect
         style="fill:#ffffff;stroke:none;stroke-width:0.99170631"
         id="rect2257"
         width="329.71478"
         height="137.50822"
         x="41.381001"
         y="505.08398" />
    </clipPath>
    <clipPath
       clipPathUnits="userSpaceOnUse"
       id="clipPath2259">
      <rect
         style="fill:#ffffff;stroke:none;stroke-width:0.99170631"
         id="rect2261"
         width="329.71478"
         height="137.50822"
         x="41.381001"
         y="505.08398" />
    </clipPath>
    <clipPath
       clipPathUnits="userSpaceOnUse"
       id="clipPath2263">
      <rect
         style="fill:#ffffff;stroke:none;stroke-width:0.99170631"
         id="rect2265"
         width="329.71478"
         height="137.50822"
         x="41.381001"
         y="505.08398" />
    </clipPath>
    <clipPath
       clipPathUnits="userSpaceOnUse"
       id="clipPath2267">
      <rect
         style="fill:#ffffff;stroke:none;stroke-width:0.99170631"
         id="rect2269"
         width="329.71478"
         height="137.50822"
         x="41.381001"
         y="505.08398" />
    </clipPath>
    <clipPath
       clipPathUnits="userSpaceOnUse"
       id="clipPath2271">
      <rect
         style="fill:#ffffff;stroke:none;stroke-width:0.99170631"
         id="rect2273"
         width="329.71478"
         height="137.50822"
         x="41.381001"
         y="505.08398" />
    </clipPath>
    <clipPath
       clipPathUnits="userSpaceOnUse"
       id="clipPath2275">
      <rect
         style="fill:#ffffff;stroke:none;stroke-width:0.99170631"
         id="rect2277"
         width="329.71478"
         height="137.50822"
         x="41.381001"
         y="505.08398" />
    </clipPath>
    <clipPath
       clipPathUnits="userSpaceOnUse"
       id="clipPath2279">
      <rect
         style="fill:#ffffff;stroke:none;stroke-width:0.99170631"
         id="rect2281"
         width="329.71478"
         height="137.50822"
         x="41.381001"
         y="505.08398" />
    </clipPath>
    <clipPath
       clipPathUnits="userSpaceOnUse"
       id="clipPath2283">
      <rect
         style="fill:#ffffff;stroke:none;stroke-width:0.99170631"
         id="rect2285"
         width="329.71478"
         height="137.50822"
         x="41.381001"
         y="505.08398" />
    </clipPath>
    <clipPath
       clipPathUnits="userSpaceOnUse"
       id="clipPath2287">
      <rect
         style="fill:#ffffff;stroke:none;stroke-width:0.99170631"
         id="rect2289"
         width="329.71478"
         height="137.50822"
         x="41.381001"
         y="505.08398" />
    </clipPath>
    <clipPath
       clipPathUnits="userSpaceOnUse"
       id="clipPath2291">
      <rect
         style="fill:#ffffff;stroke:none;stroke-width:0.99170631"
         id="rect2293"
         width="329.71478"
         height="137.50822"
         x="41.381001"
         y="505.08398" />
    </clipPath>
    <clipPath
       clipPathUnits="userSpaceOnUse"
       id="clipPath2295">
      <rect
         style="fill:#ffffff;stroke:none;stroke-width:0.99170631"
         id="rect2297"
         width="329.71478"
         height="137.50822"
         x="41.381001"
         y="505.08398" />
    </clipPath>
    <clipPath
       clipPathUnits="userSpaceOnUse"
       id="clipPath2299">
      <rect
         style="fill:#ffffff;stroke:none;stroke-width:0.99170631"
         id="rect2301"
         width="329.71478"
         height="137.50822"
         x="41.381001"
         y="505.08398" />
    </clipPath>
    <clipPath
       clipPathUnits="userSpaceOnUse"
       id="clipPath2303">
      <rect
         style="fill:#ffffff;stroke:none;stroke-width:0.99170631"
         id="rect2305"
         width="329.71478"
         height="137.50822"
         x="41.381001"
         y="505.08398" />
    </clipPath>
    <clipPath
       clipPathUnits="userSpaceOnUse"
       id="clipPath2307">
      <rect
         style="fill:#ffffff;stroke:none;stroke-width:0.99170631"
         id="rect2309"
         width="329.71478"
         height="137.50822"
         x="41.381001"
         y="505.08398" />
    </clipPath>
    <clipPath
       clipPathUnits="userSpaceOnUse"
       id="clipPath2311">
      <rect
         style="fill:#ffffff;stroke:none;stroke-width:0.99170631"
         id="rect2313"
         width="329.71478"
         height="137.50822"
         x="41.381001"
         y="505.08398" />
    </clipPath>
    <clipPath
       clipPathUnits="userSpaceOnUse"
       id="clipPath2315">
      <rect
         style="fill:#ffffff;stroke:none;stroke-width:0.99170631"
         id="rect2317"
         width="329.71478"
         height="137.50822"
         x="41.381001"
         y="505.08398" />
    </clipPath>
    <clipPath
       clipPathUnits="userSpaceOnUse"
       id="clipPath2319">
      <rect
         style="fill:#ffffff;stroke:none;stroke-width:0.99170631"
         id="rect2321"
         width="329.71478"
         height="137.50822"
         x="41.381001"
         y="505.08398" />
    </clipPath>
    <clipPath
       clipPathUnits="userSpaceOnUse"
       id="clipPath2323">
      <rect
         style="fill:#ffffff;stroke:none;stroke-width:0.99170631"
         id="rect2325"
         width="329.71478"
         height="137.50822"
         x="41.381001"
         y="505.08398" />
    </clipPath>
    <clipPath
       clipPathUnits="userSpaceOnUse"
       id="clipPath2327">
      <rect
         style="fill:#ffffff;stroke:none;stroke-width:0.99170631"
         id="rect2329"
         width="329.71478"
         height="137.50822"
         x="41.381001"
         y="505.08398" />
    </clipPath>
  </defs>
  <sodipodi:namedview
     id="base"
     pagecolor="#ffffff"
     bordercolor="#666666"
     borderopacity="1.0"
     inkscape:pageopacity="0.0"
     inkscape:pageshadow="2"
     inkscape:zoom="0.7"
     inkscape:cx="667.93433"
     inkscape:cy="62.745711"
     inkscape:document-units="mm"
     inkscape:current-layer="g242"
     showgrid="false"
     inkscape:window-width="1366"
     inkscape:window-height="708"
     inkscape:window-x="0"
     inkscape:window-y="0"
     inkscape:window-maximized="1"
     fit-margin-top="0"
     fit-margin-left="0"
     fit-margin-right="0"
     fit-margin-bottom="0" />
  <metadata
     id="metadata1083">
    <rdf:RDF>
      <cc:Work
         rdf:about="">
        <dc:format>image/svg+xml</dc:format>
        <dc:type
           rdf:resource="http://purl.org/dc/dcmitype/StillImage" />
        <dc:title></dc:title>
      </cc:Work>
    </rdf:RDF>
  </metadata>
  <g
     inkscape:label="Camada 1"
     inkscape:groupmode="layer"
     id="layer1"
     transform="translate(-22.336444,-104.17145)">
    <g
       transform="matrix(0.52847805,0,0,0.54562754,0.4674933,-175.20655)"
       id="g242">
      <path
         inkscape:connector-curvature="0"
         d="m 231.187,514.922 c 2.011,-7.652 5.238,-3.874 6.893,-3.184 2.972,1.242 4.82,4.302 5.288,7.399 0.606,3.428 -0.343,6.868 -1.23,10.165 4.402,-1.555 8.828,-3.553 13.592,-3.478 4.458,0.1 9.222,3.053 9.546,7.854 -4.083,0.412 -8.079,1.355 -12.094,2.135 4.383,1.249 9.865,2.472 11.888,7.08 0.862,1.598 -0.462,2.959 -1.111,4.327 -0.567,3.876 2.102,6.001 -8.329,4.595 11.287,8.675 19.241,10.059 28.284,13.286 -4.552,-3.49 -10.77,-3.715 -15.278,-7.161 -0.387,-1.804 1.48,-1.667 2.685,-1.586 2.51,0.194 5.001,0.624 7.449,1.224 -3.421,-4.408 -7.111,-8.66 -9.952,-13.474 -2.379,-3.852 -0.312,-8.579 -2.023,-12.631 0.037,-1.617 1.523,-0.662 2.316,-0.2 6.776,4.253 11.62,2.011 16.308,12.581 0.937,-4.189 3.309,-7.867 5.613,-11.413 2.188,0.373 11.788,7.762 13.13,21.291 3.428,-9.784 5.663,-20.329 3.796,-30.681 0.674,0.037 1.673,-0.481 1.96,0.437 2.741,5.057 4.052,10.814 4.264,16.533 2.641,-2.135 5.12,-4.458 7.286,-7.086 1.538,-2.628 5.427,9.324 -0.037,18.263 -1.505,2.666 -3.752,4.789 -6.106,6.706 3.109,0.762 5.763,-0.98 8.448,-2.192 0.618,2.497 0.631,5.126 -0.256,7.567 19.195,2.935 20.951,-5.126 26.105,-5.744 2.529,-0.325 4.795,-1.43 6.731,-3.066 0.25,0.062 0.762,0.187 1.018,0.243 -0.053,2.927 -4.485,13.076 -15.428,14.891 -4.802,0.199 -4.277,5.761 -21.153,3.315 l -0.05,0.206 c 5.13,1.984 11.228,5.665 21.366,3.091 1.898,-0.462 3.715,-1.311 5.694,-1.367 1.205,3.334 0.293,7.055 -2.285,9.478 2.085,0.3 4.083,0.993 5.931,2.01 -5.838,39.627 -6.649,47.174 -12.069,56.455 -3.446,6.144 -9.022,11.126 -15.684,13.517 -16.283,5.938 -34.24,6.256 -51.104,2.791 -6.962,-1.53 -13.911,-4.458 -18.675,-9.94 -3.109,10.682 -5.158,18.269 -21.959,24.038 -13.168,4.552 -27.341,4.839 -41.108,4.008 -38.432,-2.717 -40.503,-23.238 -44.835,-43.955 -2.304,5.344 -4.97,10.739 -9.29,14.76 -14.428,13.031 -51.991,12.883 -66.863,5.145 -7.574,-3.777 -13.399,-10.533 -16.758,-18.231 -3.025,-6.731 -4.696,-13.122 -11.026,-49.044 -0.325,-1.904 1.929,-2.772 2.535,-4.321 0.356,-1.217 0.799,-2.391 1.33,-3.534 -1.823,-1.005 -4.52,-2.085 -4.396,-4.57 -0.075,-1.773 1.754,-2.591 3.134,-3.141 7.648,-2.81 15.915,-2.847 23.957,-2.822 -3.834,-2.853 -8.198,-4.87 -12.681,-6.456 -3.901,-1.45 -14.476,-4.857 -14.573,-12.656 3.603,-1.711 7.742,-1.817 11.632,-1.292 0.937,-3.446 4.152,-5.388 7.461,-6.075 -4.692,-16.184 11.545,-14.121 17.838,-3.347 3.6,-5.803 8.255,-7.411 14.654,-6.044 -0.45,-12.977 13.681,-8.843 17.582,5.276 0.656,-2.591 1.13,-5.469 3.078,-7.455 3.443,-3.421 14.287,1.234 -3.034,31.156 3.478,-1.886 7.286,-4.021 8.872,-7.861 2.01,-4.533 -0.281,-9.646 1.48,-14.229 1.655,-4.377 5.057,-7.742 8.398,-10.889 10.971,-9.652 13.211,13.299 3.153,24.806 3.908,-0.905 8.454,-1.811 12.063,0.468 1.586,1.093 1.105,3.172 0.799,4.764 1.48,-0.587 3.053,-0.849 4.627,-0.993 0.643,-2.16 1.942,-4.071 3.859,-5.288 -1.449,-3.621 0.169,-7.898 3.79,-9.447 -0.487,-3.584 0.144,-7.492 3.122,-9.871 -3.952,-0.169 -9.365,-1.486 -9.784,-6.231 5.463,-3.034 12.038,-1.567 17.563,0.5 0.425,-1.355 1.124,-2.579 2.135,-3.571 2.769,-2.536 -0.223,-9.579 12.006,-4.42 2.866,0.044 5.688,1.074 7.474,3.409 8.649,-7.438 16.963,-4.843 19.212,0.924 2.079,-1.061 4.352,-1.611 6.649,-1.973 0.606,-1.898 1.411,-3.871 3.116,-5.057 3.483,-2.435 8.265,-2.422 12.061,-0.718 m 2.866,-2.579 c 0.075,2.073 1.873,-0.961 0,0 m -0.462,2.947 c 1.23,5.27 1.249,10.908 3.865,15.784 0.799,-0.425 2.042,-0.418 2.404,-1.38 2.99,-7.382 2.033,-14.168 -2.191,-15.721 -1.456,0.031 -2.748,0.818 -4.078,1.317 m -15.428,4.202 c 0.749,-0.062 1.505,-0.15 2.26,-0.125 1.08,3.172 0.943,6.606 0.512,9.896 3.503,-3.671 7.03,-7.305 10.271,-11.214 -1.193,-2.491 -4.314,-2.373 -6.662,-2.341 -2.672,0.019 -4.864,1.73 -6.381,3.784 m -43.374,-0.78 c -0.412,1.068 -0.743,2.167 -1.118,3.265 -0.624,1.779 -2.704,2.691 -3.047,4.602 0.268,0.868 1.336,0.955 2.017,1.392 8.529,3.646 16.508,8.972 25.817,10.464 -4.214,-3.503 -9.434,-5.494 -13.723,-8.872 -2.654,-2.791 -5.22,-5.682 -8.079,-8.273 0.206,-1.436 1.948,-1.692 2.941,-2.46 -1.58,-0.461 -3.235,-0.811 -4.808,-0.118 m 15.921,5.969 c -1.842,-0.774 -3.983,-1.942 -5.95,-0.868 -0.824,0.656 -0.387,1.773 0.119,2.485 3.291,4.785 10.907,6.347 18.156,13.33 0.537,-0.543 1.074,-1.074 1.611,-1.592 0.562,-3.884 2.572,-7.411 2.972,-11.32 0.936,-8.834 -9.517,-10.473 -16.908,-2.035 m 31.955,5.706 c 1.852,0.934 4.045,-0.045 -1.355,6.781 4.739,-1.873 9.515,-3.634 14.304,-5.363 -1.873,-3.802 -2.554,-8.023 -3.066,-12.188 -2.741,4.09 -6.968,6.837 -9.883,10.77 m -43.312,-9.296 c 0.918,0.986 1.861,1.954 2.803,2.928 1.124,-2.117 3.503,-2.329 5.644,-2.135 -2.472,-1.83 -5.656,-1.798 -8.447,-0.793 m 30.381,3.765 c -0.331,3.209 -1.286,6.287 -2.191,9.365 2.585,-3.546 6.912,-5.869 11.37,-4.764 0.543,-2.504 0.524,-5.076 0.262,-7.611 -3.222,0.743 -6.656,1.062 -9.441,3.01 m -113.877,1.723 c -1.779,1.536 -1.13,4.046 -0.712,6.038 3.421,1.898 5.944,5.014 7.798,8.41 1.861,-1.536 4.377,-1.361 6.312,-0.056 -0.581,-11.146 -10.282,-17.626 -13.398,-14.392 m 59.77,-0.412 c 6,1.043 11.9,2.56 17.788,4.115 -2.193,-1.106 -12.381,-4.51 -17.788,-4.115 m -25.93,3.721 c -2.647,2.81 -5.513,5.669 -6.699,9.447 -1.711,4.658 0.581,9.915 -1.836,14.423 -2.329,5.207 -8.123,7.055 -12.312,10.383 2.241,-0.006 4.62,0.762 6.774,0.306 13.474,-11.196 22.61,-16.346 20.841,-32.86 -0.194,-1.492 -0.712,-3.215 -2.129,-3.971 -1.935,-0.556 -3.39,1.073 -4.639,2.272 m 24.413,-1.886 c 3.815,2.76 8.803,1.973 13.068,3.484 9.833,3.364 19.915,12.11 31.137,10.845 0.549,-0.262 2.167,0.044 1.642,-0.98 -5.857,-1.823 -12.094,-2.36 -17.669,-5.057 -8.892,-4.202 -18.451,-6.937 -28.178,-8.292 m 93.123,1.424 c -7.361,2.847 -14.754,5.601 -22.152,8.341 15.718,-2.612 25.949,-9.693 37.05,-7.917 -4.346,-3.302 -10.178,-2.235 -14.898,-0.424 m 63.348,0.893 c -0.031,9.49 -2.579,18.731 -5.782,27.597 1.105,-0.325 2.204,-0.649 3.315,-0.955 1.286,-3.328 1.523,-6.912 2.329,-10.352 0.356,-1.967 1.842,-3.596 1.811,-5.632 0.056,-3.615 -0.518,-7.237 -1.673,-10.658 m -247.984,2.316 c -1.698,2.373 -1.011,5.457 -0.206,8.036 5.538,-0.268 11.132,0.387 16.29,2.51 -1.711,-4.928 -3.682,-9.171 -11.214,-11.682 -1.648,-0.543 -3.815,-0.437 -4.87,1.136 m 150.765,-0.793 c -2.847,1.242 -4.533,3.977 -5.981,6.581 0.512,1.648 0.731,3.353 0.83,5.076 4.995,-3.259 10.964,-5.657 14.117,-11.064 -2.873,-0.793 -6.088,-2.041 -8.966,-0.593 m -98.537,-0.037 c -3.793,4.851 -2.715,14.448 -5.482,26.779 3.29,-5.054 9.836,-17.452 8.56,-25.792 -0.312,-1.306 -2.141,-2.161 -3.078,-0.987 m 130.854,2.304 c -8.745,3.089 -17.561,5.058 -19.324,5.551 -1.305,0.318 -2.61,0.649 -3.859,1.168 6.119,-1.411 12.175,-3.084 18.325,-4.383 7.136,-1.68 14.379,-2.859 21.509,-4.552 -5.65,-1.093 -11.326,0.417 -16.651,2.216 m -80.387,-1.299 c 0.824,3.446 1.23,7.018 0.749,10.558 1.43,-1.917 3.478,-3.74 6.006,-3.69 2.485,1.086 5.132,-0.006 7.705,-0.125 -4.782,-2.329 -9.415,-5.007 -14.46,-6.743 m -85.606,6.924 c 0.094,1.667 0.93,3.197 1.705,4.651 1.854,1.449 3.983,2.547 5.75,4.127 1.917,1.567 3.409,3.571 5.176,5.295 4.527,0.137 9.465,1.442 12.188,5.357 0.812,0.98 -0.037,2.079 -0.593,2.935 -1.798,2.685 -4.627,4.395 -7.38,5.956 0.699,0.481 1.405,0.968 2.104,1.467 1.242,-2.841 4.04,-4.389 6.943,-5.039 0.64,-9.226 -2.252,-22.671 -8.872,-28.04 -6.525,-5.436 -14.537,-3.967 -17.021,3.291 m 79.444,-0.231 c 0.543,-0.718 1.099,-1.436 1.68,-2.104 1.249,1.317 2.348,2.772 3.528,4.158 0.05,-2.835 -0.056,-5.719 -1.061,-8.398 -2.755,0.918 -3.754,3.728 -4.147,6.344 m 110.437,-5.719 c 1.168,10.944 -2.238,5.977 11.557,23.62 1.361,1.879 3.521,2.853 5.351,4.183 -1.636,-2.248 -3.684,-4.545 -3.759,-7.474 -0.15,-1.736 1.13,-3.034 2.179,-4.227 -2.986,-13.299 -7.128,-12.367 -15.328,-16.102 m 17.988,13.954 c 0.593,-0.618 1.18,-1.236 1.773,-1.848 1.592,1.224 3.084,2.71 5.095,3.228 2.285,0.737 5.132,1.392 6.112,3.896 1.155,2.341 0.406,4.976 -0.194,7.361 2.554,-1.074 1.886,-4.021 1.848,-6.212 -0.475,-7.58 -4.495,-14.622 -10.389,-19.318 -2.397,3.865 -5.238,8.098 -4.245,12.893 m 26.604,-4.607 c -2.691,3.946 -2.398,8.941 -3.877,13.33 0.905,0.162 1.817,0.356 2.722,0.562 7.42,-4.879 10.699,-12.064 8.785,-21.166 -2.548,2.416 -5.489,4.464 -7.63,7.274 m -77.646,-3.609 c 2.81,2.591 6.974,2.029 10.502,2.416 5.878,-0.145 11.967,6.441 15.622,3.39 -0.368,-1.742 -2.191,-2.497 -3.603,-3.24 -15.828,-6.843 -13.936,-4.206 -22.521,-2.566 m 20.816,-0.262 c -0.056,0.993 1.661,1.48 2.416,0.993 0.038,-0.993 -1.673,-1.455 -2.416,-0.993 m -46.309,4.801 c 3.571,1.686 7.474,0.431 11.12,-0.294 -0.887,-1.698 -2.123,-3.184 -3.752,-4.208 -2.348,1.674 -4.92,2.985 -7.368,4.502 m -7.71,-0.587 c -1.342,0.849 -3.078,1.567 -3.584,3.228 -0.505,2.335 4.529,0.054 6.256,-1.673 0.393,-1.636 0.194,-3.334 0.006,-4.976 -1.43,0.643 -2.073,2.066 -2.678,3.421 m 22.776,2.853 c -1.917,1.567 -3.94,3.116 -5.232,5.276 3.223,-1.507 11.606,-8.222 14.429,-11.32 -3.303,1.618 -6.331,3.747 -9.197,6.044 m -65.152,-5.688 c -0.518,1.58 -1.018,3.166 -1.473,4.77 0.949,-1.055 1.954,-2.06 3.034,-2.966 -0.518,-0.611 -1.043,-1.217 -1.561,-1.804 m 62.742,1.936 c 0.262,0.837 0.512,1.68 0.762,2.535 1.742,-1.424 3.609,-2.678 5.388,-4.058 -2.066,0.449 -4.108,0.992 -6.15,1.523 m -119.253,1.461 c 1.636,4.314 2.529,8.841 3.122,13.405 2.409,-12.044 2.297,-13.986 -1.642,-16.034 -0.612,0.75 -2.06,1.449 -1.48,2.629 m 67.793,-1.155 c 0.012,0.762 0.031,1.523 0.056,2.298 6.837,3.297 14.392,6.874 22.177,5.138 0.787,-0.649 1.58,-1.299 2.379,-1.929 -0.331,-1.536 0.331,-2.916 1.199,-4.127 -3.846,0.206 -7.711,-0.368 -11.326,-1.692 -4.72,-1.23 -9.852,-1.318 -14.485,0.312 m -116.574,2.872 c 3.109,-1.498 6.381,-2.572 9.74,-3.34 -3.44,0.125 -7.411,0.437 -9.74,3.34 m 115.432,4.795 c -0.855,-2.791 -1.405,-5.657 -1.218,-8.585 -3.053,2.129 -2.953,7.967 1.218,8.585 m 52.234,2.092 c 28.201,17.618 29.768,18.219 31.337,21.996 1.255,3.109 0,6.468 -1.436,9.284 3.59,-2.266 7.592,-3.846 11.775,-4.589 -2.86,-1.954 -5.744,-5.382 -4.352,-9.059 1.03,-0.356 2.129,-0.025 3.184,-0.013 3.421,0.268 6.824,-0.318 10.196,-0.805 -15.055,-5.887 -20.996,-7.235 -30.4,-21.89 -0.699,-0.843 0.518,-1.536 0.974,-2.035 -0.325,-0.587 -0.643,-1.174 -0.955,-1.742 -2.635,-0.019 -5.295,-0.256 -7.742,-1.286 -3.884,3.745 -8.217,6.992 -12.581,10.139 m -66.157,-8.523 c -0.15,0.175 -0.456,0.531 -0.606,0.706 0.456,1.867 2.747,-1.13 0.606,-0.706 m 4.358,2.485 c -0.237,1.342 0.574,2.604 0.93,3.871 -1.392,0.681 -3.159,1.024 -4.008,2.46 -0.837,1.13 -0.606,2.597 -0.606,3.921 2.86,-2.422 5.644,-5.22 9.478,-5.969 -1.174,-1.823 -1.442,-3.958 -1.779,-6.031 -1.58,-1.236 -3.329,0.275 -4.015,1.748 m 84.22,-2.884 c 2.66,5.157 9.091,6.793 14.46,6.325 1.149,0.056 1.748,-0.849 2.029,-1.842 -6.056,0.736 -10.439,-5.008 -16.489,-4.483 m -189.357,4.008 c 4.932,1.642 9.534,4.102 13.848,6.999 3.759,-0.443 7.598,-0.556 11.332,0.194 2.179,-0.019 4.314,-0.706 6.487,-0.924 -8.387,-10.422 -21.147,-12.244 -31.667,-6.269 m 152.719,-2.285 c -0.593,1.342 0.774,2.235 1.492,3.178 17.57,19.447 10.137,24.75 16.471,32.292 4.595,3.775 11.108,1.029 20.292,7.917 11.051,-15.167 4.54,-15.81 -10.739,-25.549 -7.848,-4.926 -16.602,-8.903 -22.639,-16.183 -1.661,-0.456 -3.229,-1.181 -4.877,-1.655 m 7.43,1.636 c 0.918,0.905 1.854,1.804 2.778,2.71 1.517,-1.448 3.047,-2.878 4.577,-4.302 -2.485,0.362 -4.908,1.036 -7.355,1.592 m -60.113,4.333 c -0.244,-1.648 -0.581,-3.272 -0.968,-4.883 -0.25,1.705 -0.724,3.74 0.968,4.883 m 0.874,-4.764 c 0.131,1.168 0.431,2.31 0.799,3.434 0.481,-0.175 0.968,-0.343 1.455,-0.5 -0.756,-0.986 -1.474,-1.979 -2.254,-2.934 m 15.521,1.018 c 0.387,0.993 0.799,2.004 1.224,3.003 1.455,0.687 2.878,1.486 4.427,1.973 1.324,-0.081 2.541,-0.718 3.771,-1.168 -3.216,-1.074 -6.337,-2.404 -9.422,-3.808 m 27.385,2.141 c -0.855,0.1 -1.867,-0.193 -2.529,0.512 -1.742,1.523 -3.752,3.097 -4.533,5.357 -0.912,2.566 1.692,4.258 2.766,6.269 2.672,-1.467 6.244,-1.973 7.873,-4.826 1.417,-2.878 0.868,-6.231 1.779,-9.253 -1.673,0.886 -3.39,1.941 -5.356,1.941 m 84.744,4.926 c 0.35,3.384 3.422,5.407 5.064,8.135 1.124,1.804 0.999,3.996 1.055,6.044 1.311,0.643 2.591,1.349 3.846,2.104 0.256,-0.306 0.768,-0.918 1.024,-1.224 -1.161,-5.569 4.689,-10.202 2.616,-15.678 -1.854,-3.434 -6.219,-3.403 -9.172,-5.357 -1.992,1.475 -4.314,3.279 -4.433,5.976 M 44.99,549.156 c 8.82,7.084 17.261,5.073 36.968,18.843 0.999,0.999 2.366,0.212 3.553,0.131 -2.479,-1.193 -5.12,-2.067 -7.436,-3.578 -1.729,-1.03 -2.26,-3.172 -3.865,-4.327 -8.293,-6.655 -18.734,-13.174 -29.22,-11.069 m 202.093,0.05 c 8.217,12.016 14.893,13.439 30.625,19.542 2.485,0.025 4.964,-0.381 7.442,-0.581 -7.337,-3.744 -16.476,-4.441 -28.596,-13.243 -2.84,-2.403 -5.98,-4.401 -9.471,-5.718 m -41.033,7.398 c -0.368,1.754 -2.042,3.078 -1.829,4.976 0.445,23.277 -14.605,28.722 3.471,39.11 3.097,0.194 6.206,0.013 9.309,0.087 0.986,-0.081 2.26,0.244 2.841,-0.805 2.955,-3.618 9.517,-7.466 6.631,-16.951 -2.073,-1.536 -3.484,-3.721 -4.152,-6.194 -3.827,-2.448 -8.061,-4.858 -10.246,-9.022 -3.265,-5.644 -2.928,-12.412 -4.945,-18.462 -0.717,2.354 -0.555,4.864 -1.08,7.261 M 43.923,550.979 c 3.141,5.557 9.746,7.112 15.297,9.172 5.376,1.767 9.646,5.713 14.897,7.748 1.436,0.581 2.835,1.267 4.183,2.054 0.531,-0.137 1.592,-0.418 2.123,-0.556 -16.792,-12.119 -26.937,-11.69 -36.5,-18.418 m 165.874,-0.237 c 0.262,1.761 0.631,3.503 1.005,5.257 0.737,-0.5 1.486,-0.974 2.229,-1.455 -1.03,-1.311 -2.086,-2.604 -3.234,-3.802 m -33.56,4.095 c 5.238,2.816 10.845,5.001 16.683,6.187 -0.937,-0.993 -1.592,-2.522 -3.091,-2.722 -6.256,-1.311 -12.269,-3.59 -17.957,-6.5 1.112,1.437 2.798,2.199 4.365,3.035 m 5.407,-0.892 c 1.386,0.456 2.778,0.918 4.165,1.386 1.224,-0.874 2.46,-1.723 3.702,-2.572 -1.436,-0.181 -2.866,-0.362 -4.296,-0.549 -1.186,0.586 -2.378,1.16 -3.571,1.735 m -29.938,3.858 c 1.342,-0.512 2.672,-1.043 4.015,-1.548 0.131,-1.236 0.281,-2.472 0.437,-3.69 -2.323,0.861 -4.027,2.759 -4.452,5.238 m 3.934,3.053 c -2.004,0.855 -3.384,2.604 -4.196,4.577 -1.274,0.193 -2.741,0.119 -3.746,1.061 -1.498,1.417 -1.648,3.615 -2.085,5.507 6.35,-2.323 10.002,-8.292 14.672,-12.774 2.591,-2.76 6.375,-3.921 9.053,-6.574 -5.906,0.043 -8.685,6.155 -13.698,8.203 m -32.742,0.575 c 5.488,-1.411 11.426,1.03 16.695,-1.405 1.655,-0.924 3.752,-2.529 3.315,-4.651 -1.411,-2.054 -4.233,-2.179 -6.462,-1.861 -5.363,0.799 -9.527,4.589 -13.548,7.917 m 47.988,-7.199 c -0.35,0.999 -0.012,1.349 1.018,1.055 0.344,-1.011 0.006,-1.367 -1.018,-1.055 m 17.451,1.604 c 0.724,0.231 1.449,0.462 2.173,0.706 0.231,-0.849 0.475,-1.673 0.718,-2.497 -0.968,0.593 -1.935,1.18 -2.891,1.791 m -107.652,1.749 c 2.516,0.768 5.014,1.63 7.342,2.878 2.828,-2.191 6.212,-3.428 9.746,-3.865 -5.593,-1.373 -11.687,-1.036 -17.088,0.987 m 133.47,-1.468 c -1.168,0.88 -3.022,1.461 -2.922,3.253 1.392,-0.637 2.691,-1.448 3.877,-2.41 -0.237,-0.206 -0.718,-0.63 -0.955,-0.843 m -141.362,0.519 c 1.061,0.837 2.123,1.673 3.184,2.522 0.755,-0.868 1.523,-1.717 2.316,-2.541 -1.835,0 -3.67,-0.006 -5.5,0.019 m 91.812,1.916 c -6.013,3.734 -9.44,10.464 -15.547,14.123 19.289,-2.344 31.308,-11.87 30.95,-13.748 -1.748,-0.949 -3.559,-1.767 -5.351,-2.616 -3.352,0.774 -7.073,0.162 -10.052,2.241 m 51.516,0.188 c -0.674,0.456 -1.342,0.918 -2.004,1.399 1.111,0.193 2.235,0.418 3.347,0.643 -0.45,-0.694 -0.899,-1.368 -1.343,-2.042 m 58.341,-0.113 c 4.577,1.311 9.184,3.003 12.531,6.556 -2.935,-3.996 -7.774,-5.881 -12.531,-6.556 m 41.832,1.386 c -2.46,-0.119 -5.288,-1.498 -7.505,0.169 -2.098,1.798 -2.81,4.689 -4.858,6.55 -2.36,2.16 -5.551,3.234 -7.717,5.644 0.35,1.111 0.862,2.16 1.311,3.247 3.297,-0.868 4.876,-4.458 8.248,-5.157 2.822,-1.118 6.144,0.525 8.71,-1.342 4.04,-2.092 7.973,-5.607 8.054,-10.508 -1.979,0.817 -4.052,1.71 -6.243,1.397 m 29.607,1.817 c -6.962,4.932 -15.99,4.246 -24.013,3.284 10.182,4.62 24.911,5.635 32.005,-6.437 -2.816,0.6 -5.669,1.361 -7.992,3.153 m -257.436,1.087 c -2.585,-1.349 -5.226,-2.835 -8.167,-3.19 -1.923,0.006 -1.898,2.772 -0.493,3.59 3.347,2.366 7.567,3.815 11.694,3.559 4.252,-0.231 7.68,-3.109 10.577,-5.956 -2.443,-4.424 -9.304,-0.56 -13.611,1.997 m 54.257,-0.712 c -2.273,2.703 -2.629,6.344 -4.158,9.428 1.698,0.212 3.409,0.281 5.126,0.325 0.25,-2.91 0.837,-6.712 4.09,-7.692 1.973,-0.375 3.116,-1.973 4.202,-3.496 -1.405,0.119 -1.848,-1.18 -2.366,-2.204 -2.668,0.274 -5.221,1.51 -6.894,3.639 m 39.484,-2.373 c -5.488,6.943 -14.061,10.196 -22.302,12.562 -0.194,1.105 -0.4,2.204 -0.618,3.322 2.897,1.055 5.607,2.541 8.41,3.84 6.45,-5.345 13.124,-10.652 20.866,-14.011 0.805,-0.986 1.636,-1.935 2.46,-2.891 -2.984,-0.792 -5.925,-1.735 -8.816,-2.822 m 117.998,3.116 c -1.374,1.361 -1.542,3.39 -1.967,5.182 3.84,-1.592 6.225,-5.07 8.067,-8.635 -2.235,0.724 -4.489,1.686 -6.1,3.453 m -102.601,0.225 c 1.592,-0.025 3.184,-0.031 4.776,-0.037 -0.019,-0.656 -0.037,-1.305 -0.05,-1.948 -1.573,0.661 -3.153,1.31 -4.726,1.985 m 14.622,-1.224 c 0.212,0.843 0.425,1.698 0.649,2.566 2.341,0.012 4.664,0.312 6.98,0.63 -1.304,-2.903 -4.944,-2.865 -7.629,-3.196 m -89.04,1.224 c 9.952,0.719 11.011,3.203 15.128,-0.381 -5.038,0.599 -10.152,-0.924 -15.128,0.381 m 69.716,0.343 c 0.175,2.06 1.83,-1.043 0,0 m -58.59,3.159 c -0.031,1.498 -0.593,2.903 -1.161,4.277 0.83,0.362 1.661,0.724 2.497,1.093 1.767,-2.073 2.716,-4.595 3.334,-7.211 -1.435,0.886 -2.996,1.567 -4.67,1.841 m 46.322,5.414 c -6.787,4.72 -13.205,9.965 -19.274,15.578 -2.835,2.629 -6.219,5.644 -6.225,9.84 3.503,0.649 7.037,1.118 10.595,1.361 4.239,-2.991 9.172,-5.12 12.675,-9.059 7.414,-8.061 0.004,-19.829 23.651,-22.808 0.044,-0.474 0.125,-1.43 0.169,-1.911 -7.818,-0.619 -15.242,2.759 -21.591,6.999 m -79.719,-3.185 c 1.848,-0.312 3.684,-0.78 5.569,-0.768 8.184,-0.215 18.632,6.248 24.831,-0.918 -2.341,-0.862 -4.851,-0.674 -7.268,-0.318 -8.761,1.152 -17.255,-3.52 -23.132,2.004 m 112.847,-2.441 c 1.086,1.686 2.423,3.19 3.877,4.577 0.144,-1.411 0.275,-2.828 0.393,-4.233 -1.423,-0.144 -2.846,-0.263 -4.27,-0.344 m 6.288,0.481 c -0.281,1.817 -0.456,3.646 -0.637,5.482 0.83,0.574 1.661,1.161 2.504,1.742 -0.306,-2.473 -0.413,-5.108 -1.867,-7.224 m 96.757,3.215 c 6.156,1.143 12.799,2.666 18.812,0.094 -5.101,-0.219 -10.102,-1.424 -14.847,-3.272 -1.299,1.087 -2.642,2.123 -3.965,3.178 m -232.225,0.019 c -6.949,2.01 -14.985,3.571 -19.374,9.94 8.277,4.816 17.089,-2.583 26.635,-5.844 2.123,-0.943 4.508,-1.18 6.55,-2.31 -3.546,-3.903 -9.272,-2.979 -13.811,-1.786 m 115.844,-1.043 c 0.087,0.862 0.506,1.011 1.255,0.45 -0.1,-0.881 -0.518,-1.03 -1.255,-0.45 m -145.039,0.918 c -3.022,0.306 -6.187,0.418 -8.928,1.873 -0.949,0.556 -2.579,1.061 -2.054,2.485 1.53,1.804 4.321,2.104 6.537,1.861 4.914,-1.136 9.977,-1.093 14.985,-1.105 1.33,0.156 2.31,-0.855 3.372,-1.455 1.879,-1.218 3.983,-2.011 6.025,-2.903 -1.436,-0.537 -2.803,-1.449 -4.389,-1.411 -5.19,-0.088 -10.385,0.118 -15.548,0.655 m 50.498,0.013 c 7.211,2.459 8.685,4.771 18.163,4.577 2.997,-0.031 5.482,-1.96 7.136,-4.321 -2.079,1.018 -4.227,2.048 -6.593,2.085 -6.343,0.262 -12.375,-2.36 -18.706,-2.341 m 90.926,-0.406 c -0.04,7.155 -5.009,9.898 -12.125,10.839 -0.387,1.299 -0.793,2.591 -1.186,3.909 4.227,2.429 9.241,1.623 13.861,1.317 1.286,-4.801 3.172,-9.422 4.083,-14.323 -1.724,0 -3.316,-0.662 -4.633,-1.742 m -11.426,8.785 c 4.52,-0.387 9.565,-3.215 9.578,-8.323 -4.277,1.149 -7.98,4.127 -9.578,8.323 m 77.82,-6.032 c 10.079,8.877 20.697,-3.873 31.368,1.455 -7.764,-7.64 -20.576,-0.613 -31.368,-1.455 m 39.323,1.942 c 3.446,1.005 6.575,2.828 9.403,5.02 12.963,-2.658 22.811,10.073 31.967,3.59 2.01,-1.286 2.722,-3.727 2.554,-5.994 -23.809,8.303 -30.742,-12.389 -43.924,-2.616 M 98.473,574.168 c 2.66,2.285 4.664,5.17 6.974,7.779 3.166,3.528 8.092,5.9 12.881,4.995 2.504,-0.487 4.208,-2.566 5.326,-4.708 -2.098,-2.26 -3.846,-5.469 -7.18,-5.95 -6.367,-0.771 -11.005,-7.489 -18.001,-2.116 m 29.201,1.754 c -2.104,0.805 -4.408,0.693 -6.612,0.993 5.207,1.324 10.639,1.586 15.84,2.991 0.331,2.173 0.1,4.37 -0.612,6.456 0.93,-0.169 1.861,-0.325 2.797,-0.468 0.156,-0.25 0.468,-0.749 0.624,-0.993 2.279,-0.924 3.915,-2.791 5.394,-4.676 2.878,-3.777 7.854,-5.394 12.481,-5.089 0.031,-0.718 0.069,-1.436 0.1,-2.135 -7.275,1.84 -18.892,3.356 -25.68,-0.418 -1.303,1.272 -2.59,2.677 -4.332,3.339 m 135.418,-0.955 c 5.663,5.795 6.116,3.201 12.799,4.277 0.912,-0.855 1.842,-1.68 2.797,-2.472 -5.182,1.367 -10.988,1.173 -15.596,-1.805 m -179.079,5.338 c -0.087,3.517 5.821,9.525 15.634,8.853 2.803,-0.437 3.965,-3.465 4.714,-5.844 -2.366,-3.116 -4.889,-6.244 -8.31,-8.26 -4.146,1.386 -8.242,3.103 -12.038,5.251 m 193.296,0.35 c -1.58,1.767 -1.773,4.246 -0.93,6.406 4.783,-0.025 10.308,-1.049 13.268,-5.207 1.349,-2.017 3.053,-3.727 4.764,-5.426 -5.795,-3.141 -13.056,-0.518 -17.102,4.227 m 21.203,-3.528 c 3.746,3.353 7.343,7.268 8.635,12.269 5.538,-0.219 11.076,-0.537 16.62,-0.78 -12.543,-4.258 -17.266,-15.097 -25.255,-11.489 m -247.571,1.286 c -1.861,0.306 -3.909,1.655 -3.909,3.74 1.055,1.58 2.373,3.478 4.458,3.609 4.015,0.637 8.042,1.23 12.088,1.686 0.206,-1.349 0.556,-2.66 0.993,-3.94 -0.674,-0.905 -1.317,-1.836 -1.942,-2.76 0.699,-1.23 1.467,-2.422 2.285,-3.571 -4.683,0.006 -9.359,0.468 -13.973,1.236 m 100.622,-0.443 c -4.414,1.355 -6.1,6.262 -10.071,8.304 -0.081,0.993 -0.137,1.992 -0.181,3.009 2.629,0.425 5.089,-0.843 7.686,-1.018 2.878,-0.406 5.769,0.1 8.622,0.5 2.604,-2.766 5.507,-5.226 8.192,-7.892 -4.334,-2.123 -9.354,-4.714 -14.248,-2.903 m 136.404,8.379 c -3.865,2.035 -8.416,3.016 -12.743,2.454 -1.218,-1.91 -1.374,-4.258 -1.093,-6.443 -4.146,1.729 -8.06,3.983 -11.725,6.581 14.217,1.28 28.527,1.236 42.775,0.537 -1.592,-4.801 -5.326,-8.554 -9.415,-11.351 -3.498,1.872 -4.228,6.43 -7.799,8.222 m -163.895,-6.824 c 0.556,0.812 1.455,1.517 1.636,2.56 -0.899,2.716 -2.91,4.97 -5.476,6.231 4.47,-0.512 8.947,-0.968 13.411,-1.573 0.737,-1.392 1.936,-2.828 1.53,-4.502 -0.665,-1.275 -0.944,-1.133 -11.101,-2.716 m 128.006,7.548 c 2.435,0.612 4.858,1.28 7.324,1.767 4.021,-3.265 8.541,-5.813 13.218,-8.017 -7.336,-0.593 -14.71,1.836 -20.542,6.25 m 62.024,-6.106 c 9.03,8.1 21.187,8.354 32.96,5.245 -2.597,-0.643 -5.157,-0.081 -7.698,0.468 -8.953,0.818 -16.296,-6.493 -25.262,-5.713 m -246.304,2.491 c -1.074,1.286 -1.792,2.803 -1.873,4.508 2.279,-0.231 4.252,-1.461 6.294,-2.391 2.304,-1.118 4.708,-2.023 6.962,-3.234 -3.728,0.874 -7.53,1.929 -11.383,1.117 m 3.472,4.776 c 2.766,0.256 5.538,0.487 8.316,0.593 1.355,-1.23 2.666,-2.504 3.927,-3.827 -0.393,-0.912 -0.793,-1.817 -1.18,-2.716 -3.228,2.766 -7.386,3.946 -11.063,5.95 m -25.593,-4.57 c -0.618,0.624 -1.342,1.155 -1.904,1.842 2.647,12.369 4.152,24.999 7.349,37.268 7.124,4.127 15.59,3.64 23.52,3.921 21.9,0.656 46.239,4.959 69.298,-4.764 -2.817,-19.795 -4.651,-25.266 -1.299,-30.463 -1.024,-0.094 -2.06,-0.175 -3.053,-0.45 -0.699,-0.918 -0.325,-2.16 -0.443,-3.184 -31.143,5.057 -63.104,4.433 -94.122,-1.174 -0.125,-0.181 -0.375,-0.543 -0.499,-0.718 -0.393,-1.324 1.236,-1.305 2.042,-1.093 -0.296,-0.404 -0.595,-0.798 -0.889,-1.185 m 183.219,0.593 c 0.081,1.33 0.15,2.666 0.206,4.015 8.616,3.419 9.284,1.965 15.122,0.712 -4.533,-3.172 -10.171,-3.328 -15.328,-4.727 m -125.297,5.02 c 2.922,-0.069 5.838,-0.293 8.754,-0.406 -2.329,-0.874 -4.514,-2.123 -6.269,-3.902 -0.749,1.48 -1.567,2.922 -2.485,4.308 m 79.182,-2.972 c -0.343,0.724 -0.693,1.436 -1.03,2.179 5.051,0.568 10.227,0.106 15.153,1.617 -0.006,-0.843 -0.006,-1.68 0,-2.497 -4.714,0.474 -9.765,0.955 -14.123,-1.299 M 82.29,588.977 c 2.204,0.187 4.42,0.3 6.637,0.237 -1.336,-0.974 -2.678,-1.929 -3.971,-2.953 -0.874,0.912 -1.767,1.817 -2.666,2.716 m 234.691,1.88 c -18.256,1.055 -36.563,1.498 -54.813,0.112 2.385,1.661 2.791,4.814 2.248,7.48 -1.449,8.298 -3.297,16.533 -5.188,24.743 5.988,1.598 12.225,1.105 18.344,1.149 22.415,0.194 45.048,-0.281 67,-5.307 1.786,-10.352 3.153,-20.766 4.72,-31.149 -10.584,2.529 -21.522,2.285 -32.311,2.972 m -67.182,-2.086 c -0.044,0.187 -0.144,0.574 -0.194,0.768 2.891,0.256 6,0.4 8.504,2.042 1.598,1.005 2.298,3.172 1.517,4.92 -1.08,1.761 -3.215,2.291 -5.057,2.86 -0.993,2.585 -2.21,5.226 -4.42,7.005 -7.511,-7.938 -6.073,-3.715 -29.982,-3.715 -30.659,-0.077 -62.295,-0.384 -74.942,-6.244 -1.33,-0.437 -1.374,-1.979 -1.773,-3.091 -1.446,4.467 -1.416,6.666 4.658,40.846 26.731,9.488 78.742,6.64 106.653,0.568 2.385,-11.326 4.689,-22.671 7.38,-33.922 1.925,-9.316 -2.869,-10.154 -12.344,-12.037 m -80.886,10.346 c 11.601,0.868 23.226,1.286 34.858,1.53 -2.941,-2.129 -5.619,-4.808 -6.693,-8.36 -5.251,-2.148 -10.995,-1.324 -16.483,-2.073 -3.253,3.733 -7.548,6.268 -11.682,8.903 m 59.964,-8.803 c -0.425,1.286 -0.874,2.566 -1.355,3.846 10.401,4.99 18.073,-1.426 23.476,9.528 1.055,-2.098 2.479,-4.408 1.904,-6.831 -1.355,-3.253 -5.263,-4.221 -8.46,-4.121 -5.282,0.319 -10.626,-0.518 -15.565,-2.422 m -83.533,1.23 c -0.993,0.187 -0.624,1.729 0.356,1.193 0.992,-0.201 0.618,-1.737 -0.356,-1.193 m 103.363,0.056 c 1.149,0.543 2.354,0.993 3.446,1.667 1.311,0.824 1.948,2.304 2.928,3.453 0.268,-0.868 0.687,-1.898 -0.031,-2.66 -1.38,-2.061 -4.183,-1.954 -6.343,-2.46 m -101.796,1.76 c 0.312,3.003 4.102,2.766 6.237,3.827 0.225,-1.442 0.537,-2.866 0.968,-4.258 -2.404,0.194 -4.814,0.138 -7.205,0.431 m 78.613,2.529 c 5.813,5.057 14.192,1.336 20.723,4.645 l 0.131,-0.125 c -4.745,-2.897 -10.464,-1.136 -15.609,-2.348 -1.917,-0.293 -3.49,-1.479 -5.245,-2.172 m -3.84,4.883 c 2.76,-0.106 5.519,-0.237 8.285,-0.125 -2.048,-0.581 -4.133,-1.211 -5.619,-2.822 -0.905,0.961 -1.804,1.935 -2.666,2.947 m 60.264,25.442 c -7.717,-0.194 -15.54,0.649 -23.151,-1.043 -1.505,6.462 -2.816,12.968 -4.008,19.499 -0.056,0.849 -0.606,1.917 0.175,2.629 8.27,10.645 25.466,11.729 38.873,12.15 10.727,-0.112 21.709,-1.411 31.543,-5.931 5.426,-2.416 9.759,-6.88 12.55,-12.063 3.44,-6.287 5.101,-13.349 6.269,-20.36 -20.407,4.539 -41.416,5.344 -62.251,5.119 m -157.377,2.854 c -16.371,2.273 -32.873,0.212 -49.281,-0.425 -7.892,-0.306 -16.14,0.119 -23.507,-3.247 2.703,9.384 7.436,18.831 15.834,24.319 8.57,5.645 29.169,9.929 52.04,4.352 14.238,-3.458 19.762,-9.493 25.118,-23.039 0.949,-2.348 -0.25,-4.833 -0.524,-7.199 -6.281,2.641 -12.937,4.333 -19.68,5.239 m 24.038,7.342 c 3.27,14.054 5.299,29.209 25.418,35.807 11.703,3.783 40.906,6.518 61.718,-2.61 14.104,-6.106 15.253,-16.569 18.593,-32.829 -27.403,5.915 -78.834,8.605 -105.729,-0.368 z"
         id="path70"
         inkscape:export-xdpi="153.31828"
         inkscape:export-ydpi="153.31828"
         inkscape:export-filename="/home/vitor/Documentos/GitHub/flora/public/logo2.svg.png"
         clip-path="url(#clipPath2327)" />
      <path
         inkscape:connector-curvature="0"
         d="m 90.987,594.416 c 0.643,-0.225 1.292,-0.45 1.967,-0.574 0.206,0.693 0.468,1.561 -0.325,2.029 -0.862,-0.057 -1.199,-0.868 -1.642,-1.455 z"
         id="path72"
         inkscape:export-filename="/home/vitor/Documentos/GitHub/flora/public/logo2.svg.png"
         inkscape:export-xdpi="153.31828"
         inkscape:export-ydpi="153.31828"
         clip-path="url(#clipPath2323)" />
      <path
         inkscape:connector-curvature="0"
         d="m 124.259,593.866 c 2.135,-0.287 0.169,3.603 -0.88,1.861 -0.862,-0.649 0.075,-1.705 0.88,-1.861 z"
         id="path74"
         inkscape:export-filename="/home/vitor/Documentos/GitHub/flora/public/logo2.svg.png"
         inkscape:export-xdpi="153.31828"
         inkscape:export-ydpi="153.31828"
         clip-path="url(#clipPath2319)" />
      <path
         inkscape:connector-curvature="0"
         d="m 130.571,593.735 c 1.461,-0.862 2.572,1.711 0.849,1.998 -1.211,0.456 -1.161,-1.292 -0.849,-1.998 z"
         id="path76"
         inkscape:export-filename="/home/vitor/Documentos/GitHub/flora/public/logo2.svg.png"
         inkscape:export-xdpi="153.31828"
         inkscape:export-ydpi="153.31828"
         clip-path="url(#clipPath2315)" />
      <path
         inkscape:connector-curvature="0"
         d="m 52.832,594.353 c 0.431,-0.037 1.292,-0.119 1.723,-0.156 -0.112,0.855 -0.094,1.873 -1.199,2.054 -0.836,-0.412 -0.823,-1.173 -0.524,-1.898 z"
         id="path78"
         inkscape:export-filename="/home/vitor/Documentos/GitHub/flora/public/logo2.svg.png"
         inkscape:export-xdpi="153.31828"
         inkscape:export-ydpi="153.31828"
         clip-path="url(#clipPath2311)" />
      <path
         inkscape:connector-curvature="0"
         d="m 293.523,595.764 c 1.08,-0.362 1.074,1.024 1.086,1.736 -0.481,0 -1.448,0 -1.935,0 0.3,-0.543 -0.012,-1.811 0.849,-1.736 z"
         id="path80"
         inkscape:export-filename="/home/vitor/Documentos/GitHub/flora/public/logo2.svg.png"
         inkscape:export-xdpi="153.31828"
         inkscape:export-ydpi="153.31828"
         clip-path="url(#clipPath2307)" />
      <path
         inkscape:connector-curvature="0"
         d="m 75.965,598.106 c 0,-1.361 0.874,-1.761 2.142,-1.436 -0.131,0.556 -0.262,1.118 -0.4,1.686 -0.431,-0.063 -1.305,-0.188 -1.742,-0.25 z"
         id="path82"
         inkscape:export-filename="/home/vitor/Documentos/GitHub/flora/public/logo2.svg.png"
         inkscape:export-xdpi="153.31828"
         inkscape:export-ydpi="153.31828"
         clip-path="url(#clipPath2303)" />
      <path
         inkscape:connector-curvature="0"
         d="m 336.405,598.674 c 0.225,-0.743 -0.056,-2.179 1.155,-1.779 1.111,-0.306 0.799,1.08 1.043,1.754 -0.737,0.006 -1.468,0.019 -2.198,0.025 z"
         id="path84"
         inkscape:export-filename="/home/vitor/Documentos/GitHub/flora/public/logo2.svg.png"
         inkscape:export-xdpi="153.31828"
         inkscape:export-ydpi="153.31828"
         clip-path="url(#clipPath2299)" />
      <path
         inkscape:connector-curvature="0"
         d="m 61.049,597.456 c 0.481,-0.05 1.449,-0.144 1.936,-0.194 -0.056,0.762 0.05,1.655 -0.768,2.104 -0.862,-0.305 -0.925,-1.198 -1.168,-1.91 z"
         id="path86"
         inkscape:export-filename="/home/vitor/Documentos/GitHub/flora/public/logo2.svg.png"
         inkscape:export-xdpi="153.31828"
         inkscape:export-ydpi="153.31828"
         clip-path="url(#clipPath2295)" />
      <path
         inkscape:connector-curvature="0"
         d="m 110.486,598.206 c 0.556,-0.325 1.13,-1.136 1.748,-0.45 1.099,0.524 -0.281,1.58 -0.912,1.873 -0.206,-0.356 -0.624,-1.068 -0.836,-1.423 z"
         id="path88"
         inkscape:export-filename="/home/vitor/Documentos/GitHub/flora/public/logo2.svg.png"
         inkscape:export-xdpi="153.31828"
         inkscape:export-ydpi="153.31828"
         clip-path="url(#clipPath2291)" />
      <path
         inkscape:connector-curvature="0"
         d="m 106.696,599.766 c 0.493,-0.131 0.986,-0.244 1.48,-0.356 0.062,0.637 0.119,1.28 0.175,1.936 -0.406,-0.006 -1.211,-0.019 -1.617,-0.025 -0.007,-0.387 -0.032,-1.167 -0.038,-1.555 z"
         id="path90"
         inkscape:export-filename="/home/vitor/Documentos/GitHub/flora/public/logo2.svg.png"
         inkscape:export-xdpi="153.31828"
         inkscape:export-ydpi="153.31828"
         clip-path="url(#clipPath2287)" />
      <path
         inkscape:connector-curvature="0"
         d="m 272.913,599.923 c 1.261,0.125 1.542,2.079 0.225,2.235 -1.374,0.237 -1.386,-1.986 -0.225,-2.235 z"
         id="path92"
         inkscape:export-filename="/home/vitor/Documentos/GitHub/flora/public/logo2.svg.png"
         inkscape:export-xdpi="153.31828"
         inkscape:export-ydpi="153.31828"
         clip-path="url(#clipPath2283)" />
      <path
         inkscape:connector-curvature="0"
         d="m 117.16,600.69 c 0.443,0 1.336,-0.006 1.786,-0.013 -0.056,0.662 -0.119,1.33 -0.187,2.004 -1.168,-0.13 -1.767,-0.81 -1.599,-1.991 z"
         id="path94"
         inkscape:export-filename="/home/vitor/Documentos/GitHub/flora/public/logo2.svg.png"
         inkscape:export-xdpi="153.31828"
         inkscape:export-ydpi="153.31828"
         clip-path="url(#clipPath2279)" />
      <path
         inkscape:connector-curvature="0"
         d="m 307.846,601.964 c 0.256,-0.624 0.175,-1.474 0.88,-1.804 1.236,-0.106 0.999,1.118 1.186,1.923 -0.692,-0.044 -1.379,-0.081 -2.066,-0.119 z"
         id="path96"
         inkscape:export-filename="/home/vitor/Documentos/GitHub/flora/public/logo2.svg.png"
         inkscape:export-xdpi="153.31828"
         inkscape:export-ydpi="153.31828"
         clip-path="url(#clipPath2275)" />
      <path
         inkscape:connector-curvature="0"
         d="m 267.282,601.159 c 0.425,-0.05 1.28,-0.162 1.705,-0.212 0.05,0.662 0.094,1.342 0.137,2.029 -0.581,0 -1.161,0.013 -1.736,0.025 -0.044,-0.618 -0.075,-1.237 -0.106,-1.842 z"
         id="path98"
         inkscape:export-filename="/home/vitor/Documentos/GitHub/flora/public/logo2.svg.png"
         inkscape:export-xdpi="153.31828"
         inkscape:export-ydpi="153.31828"
         clip-path="url(#clipPath2271)" />
      <path
         inkscape:connector-curvature="0"
         d="m 78.113,602.664 c 1.13,-0.412 0.943,1.136 1.168,1.823 -0.487,-0.025 -1.473,-0.081 -1.96,-0.106 0.298,-0.525 0.024,-1.717 0.792,-1.717 z"
         id="path100"
         inkscape:export-filename="/home/vitor/Documentos/GitHub/flora/public/logo2.svg.png"
         inkscape:export-xdpi="153.31828"
         inkscape:export-ydpi="153.31828"
         clip-path="url(#clipPath2267)" />
      <path
         inkscape:connector-curvature="0"
         d="m 86.71,602.514 c 0.475,-0.125 1.43,-0.368 1.911,-0.493 -0.337,0.568 0.219,2.16 -0.93,2.01 -1.006,0.087 -0.987,-0.799 -0.981,-1.517 z"
         id="path102"
         inkscape:export-filename="/home/vitor/Documentos/GitHub/flora/public/logo2.svg.png"
         inkscape:export-xdpi="153.31828"
         inkscape:export-ydpi="153.31828"
         clip-path="url(#clipPath2263)" />
      <path
         inkscape:connector-curvature="0"
         d="m 258.303,604.106 c -0.037,-1.28 1.236,-1.005 2.11,-1.111 -0.212,0.737 -0.443,1.467 -0.674,2.21 -0.493,-0.362 -0.986,-0.706 -1.436,-1.099 z"
         id="path104"
         inkscape:export-filename="/home/vitor/Documentos/GitHub/flora/public/logo2.svg.png"
         inkscape:export-xdpi="153.31828"
         inkscape:export-ydpi="153.31828"
         clip-path="url(#clipPath2259)" />
      <path
         inkscape:connector-curvature="0"
         d="m 320.465,603.175 c 0.843,0.081 1.848,0 2.241,0.974 -0.337,0.631 -0.83,1.111 -1.486,1.43 -1.192,-0.324 -0.705,-1.542 -0.755,-2.404 z"
         id="path106"
         inkscape:export-filename="/home/vitor/Documentos/GitHub/flora/public/logo2.svg.png"
         inkscape:export-xdpi="153.31828"
         inkscape:export-ydpi="153.31828"
         clip-path="url(#clipPath2255)" />
      <path
         inkscape:connector-curvature="0"
         d="m 331.566,603.119 c 0.343,-0.031 1.024,-0.094 1.367,-0.125 0.125,0.268 0.381,0.805 0.512,1.074 -0.162,0.225 -0.474,0.668 -0.637,0.893 -0.456,-0.144 -0.912,-0.281 -1.361,-0.412 0.031,-0.362 0.094,-1.074 0.119,-1.43 z"
         id="path108"
         inkscape:export-filename="/home/vitor/Documentos/GitHub/flora/public/logo2.svg.png"
         inkscape:export-xdpi="153.31828"
         inkscape:export-ydpi="153.31828"
         clip-path="url(#clipPath2251)" />
      <path
         inkscape:connector-curvature="0"
         d="m 115.656,603.75 c 1.043,-0.824 2.173,0.037 1.798,1.249 -0.993,0.936 -2.198,-0.088 -1.798,-1.249 z"
         id="path110"
         inkscape:export-filename="/home/vitor/Documentos/GitHub/flora/public/logo2.svg.png"
         inkscape:export-xdpi="153.31828"
         inkscape:export-ydpi="153.31828"
         clip-path="url(#clipPath2247)" />
      <path
         inkscape:connector-curvature="0"
         d="m 55.436,605.823 c -0.162,-1.349 0.637,-1.992 1.954,-2.06 0.175,1.473 -0.487,2.322 -1.954,2.06 z"
         id="path112"
         inkscape:export-filename="/home/vitor/Documentos/GitHub/flora/public/logo2.svg.png"
         inkscape:export-xdpi="153.31828"
         inkscape:export-ydpi="153.31828"
         clip-path="url(#clipPath2243)" />
      <path
         inkscape:connector-curvature="0"
         d="m 151.744,605.904 c 0.493,-1.274 2.042,-1.205 3.097,-1.723 0.268,0.581 0.537,1.174 0.799,1.773 -1.293,0.037 -3.079,1.629 -3.896,-0.05 z"
         id="path114"
         inkscape:export-filename="/home/vitor/Documentos/GitHub/flora/public/logo2.svg.png"
         inkscape:export-xdpi="153.31828"
         inkscape:export-ydpi="153.31828"
         clip-path="url(#clipPath2239)" />
      <path
         inkscape:connector-curvature="0"
         d="m 124.141,606.378 c -0.219,-0.893 0.4,-1.317 1.161,-1.523 0.893,0.481 0.599,1.448 0.431,2.248 -0.544,-0.225 -1.074,-0.469 -1.592,-0.725 z"
         id="path116"
         inkscape:export-filename="/home/vitor/Documentos/GitHub/flora/public/logo2.svg.png"
         inkscape:export-xdpi="153.31828"
         inkscape:export-ydpi="153.31828"
         clip-path="url(#clipPath2235)" />
      <path
         inkscape:connector-curvature="0"
         d="m 281.017,604.911 c 1.186,-0.331 1.985,0.556 1.411,1.711 -1.161,0.449 -2.391,-0.568 -1.411,-1.711 z"
         id="path118"
         inkscape:export-filename="/home/vitor/Documentos/GitHub/flora/public/logo2.svg.png"
         inkscape:export-xdpi="153.31828"
         inkscape:export-ydpi="153.31828"
         clip-path="url(#clipPath2231)" />
      <path
         inkscape:connector-curvature="0"
         d="m 67.268,605.273 c 0.406,0.044 1.224,0.131 1.63,0.175 -0.019,0.387 -0.062,1.155 -0.081,1.542 -0.387,0.056 -1.161,0.175 -1.548,0.231 -0.001,-0.487 -0.001,-1.461 -0.001,-1.948 z"
         id="path120"
         inkscape:export-filename="/home/vitor/Documentos/GitHub/flora/public/logo2.svg.png"
         inkscape:export-xdpi="153.31828"
         inkscape:export-ydpi="153.31828"
         clip-path="url(#clipPath2227)" />
      <path
         inkscape:connector-curvature="0"
         d="m 71.632,605.767 c 0.643,0.106 1.442,-0.075 1.936,0.475 0.119,0.749 0.062,1.53 -0.793,1.829 -1.206,-0.194 -0.95,-1.455 -1.143,-2.304 z"
         id="path122"
         inkscape:export-filename="/home/vitor/Documentos/GitHub/flora/public/logo2.svg.png"
         inkscape:export-xdpi="153.31828"
         inkscape:export-ydpi="153.31828"
         clip-path="url(#clipPath2223)" />
      <path
         inkscape:connector-curvature="0"
         d="m 96.912,606.597 c 0.019,-1.118 1.043,-1.03 1.829,-1.161 0.019,0.687 0.031,1.386 0.044,2.092 -0.643,-0.282 -1.43,-0.325 -1.873,-0.931 z"
         id="path124"
         inkscape:export-filename="/home/vitor/Documentos/GitHub/flora/public/logo2.svg.png"
         inkscape:export-xdpi="153.31828"
         inkscape:export-ydpi="153.31828"
         clip-path="url(#clipPath2219)" />
      <path
         inkscape:connector-curvature="0"
         d="m 131.614,606.616 c 0.493,-0.618 1.124,-1.068 1.879,-1.286 0.056,0.406 0.175,1.224 0.231,1.636 -0.256,0.125 -0.762,0.375 -1.018,0.499 -0.274,-0.212 -0.817,-0.637 -1.092,-0.849 z"
         id="path126"
         inkscape:export-filename="/home/vitor/Documentos/GitHub/flora/public/logo2.svg.png"
         inkscape:export-xdpi="153.31828"
         inkscape:export-ydpi="153.31828"
         clip-path="url(#clipPath2215)" />
      <path
         inkscape:connector-curvature="0"
         d="m 194.643,607.153 c -1.068,-0.986 0.643,-1.498 1.292,-1.767 0.281,0.668 0.562,1.349 0.837,2.035 -0.78,0.225 -1.879,1.005 -2.129,-0.268 z"
         id="path128"
         inkscape:export-filename="/home/vitor/Documentos/GitHub/flora/public/logo2.svg.png"
         inkscape:export-xdpi="153.31828"
         inkscape:export-ydpi="153.31828"
         clip-path="url(#clipPath2211)" />
      <path
         inkscape:connector-curvature="0"
         d="m 200.338,605.773 c 0.743,-0.006 1.567,-0.062 2.017,0.706 -0.144,0.986 -1.043,1.111 -1.823,1.311 -0.051,-0.506 -0.144,-1.518 -0.194,-2.017 z"
         id="path130"
         inkscape:export-filename="/home/vitor/Documentos/GitHub/flora/public/logo2.svg.png"
         inkscape:export-xdpi="153.31828"
         inkscape:export-ydpi="153.31828"
         clip-path="url(#clipPath2207)" />
      <path
         inkscape:connector-curvature="0"
         d="m 63.933,609.038 c 0.094,-0.887 1.043,-0.874 1.648,-1.149 0.069,0.712 0.131,1.424 0.181,2.154 -0.705,-0.199 -1.779,0.038 -1.829,-1.005 z"
         id="path132"
         inkscape:export-filename="/home/vitor/Documentos/GitHub/flora/public/logo2.svg.png"
         inkscape:export-xdpi="153.31828"
         inkscape:export-ydpi="153.31828"
         clip-path="url(#clipPath2203)" />
      <path
         inkscape:connector-curvature="0"
         d="m 248.351,608.07 c 0.368,0.031 1.111,0.087 1.48,0.119 0.037,0.556 0.075,1.118 0.112,1.686 -0.412,0.031 -1.23,0.081 -1.642,0.112 0.012,-0.649 0.025,-1.292 0.05,-1.917 z"
         id="path134"
         inkscape:export-filename="/home/vitor/Documentos/GitHub/flora/public/logo2.svg.png"
         inkscape:export-xdpi="153.31828"
         inkscape:export-ydpi="153.31828"
         clip-path="url(#clipPath2199)" />
      <path
         inkscape:connector-curvature="0"
         d="m 88.209,608.639 c 0.568,0.381 1.998,0.331 1.598,1.342 0.019,0.812 -1.186,0.574 -1.698,0.924 0.025,-0.762 0.056,-1.517 0.1,-2.266 z"
         id="path136"
         inkscape:export-filename="/home/vitor/Documentos/GitHub/flora/public/logo2.svg.png"
         inkscape:export-xdpi="153.31828"
         inkscape:export-ydpi="153.31828"
         clip-path="url(#clipPath2195)" />
      <path
         inkscape:connector-curvature="0"
         d="m 72.93,609.382 c 0.4,0.019 1.205,0.062 1.605,0.087 -0.006,0.537 -0.012,1.093 -0.025,1.654 -0.4,0.037 -1.211,0.1 -1.611,0.131 0.007,-0.636 0.019,-1.261 0.031,-1.872 z"
         id="path138"
         inkscape:export-filename="/home/vitor/Documentos/GitHub/flora/public/logo2.svg.png"
         inkscape:export-xdpi="153.31828"
         inkscape:export-ydpi="153.31828"
         clip-path="url(#clipPath2191)" />
      <path
         inkscape:connector-curvature="0"
         d="m 107.202,609.069 c 1.224,-0.031 2.142,0.375 1.68,1.773 -1.506,0.75 -1.874,-0.53 -1.68,-1.773 z"
         id="path140"
         inkscape:export-filename="/home/vitor/Documentos/GitHub/flora/public/logo2.svg.png"
         inkscape:export-xdpi="153.31828"
         inkscape:export-ydpi="153.31828"
         clip-path="url(#clipPath2187)" />
      <path
         inkscape:connector-curvature="0"
         d="m 162.07,609.538 c 0.649,0.069 1.424,-0.094 1.967,0.387 -0.012,0.556 -0.044,1.124 -0.112,1.698 -1.161,-0.169 -1.761,-0.955 -1.855,-2.085 z"
         id="path142"
         inkscape:export-filename="/home/vitor/Documentos/GitHub/flora/public/logo2.svg.png"
         inkscape:export-xdpi="153.31828"
         inkscape:export-ydpi="153.31828"
         clip-path="url(#clipPath2183)" />
      <path
         inkscape:connector-curvature="0"
         d="m 189.099,609.831 c 0.724,-0.568 1.455,-0.106 2.129,0.256 -0.187,0.362 -0.568,1.086 -0.755,1.448 -0.862,-0.218 -1.642,-0.692 -1.374,-1.704 z"
         id="path144"
         inkscape:export-filename="/home/vitor/Documentos/GitHub/flora/public/logo2.svg.png"
         inkscape:export-xdpi="153.31828"
         inkscape:export-ydpi="153.31828"
         clip-path="url(#clipPath2179)" />
      <path
         inkscape:connector-curvature="0"
         d="m 254.888,609.388 c 0.762,-1.274 2.479,0.631 1.311,1.299 -0.612,1.186 -2.216,-0.687 -1.311,-1.299 z"
         id="path146"
         inkscape:export-filename="/home/vitor/Documentos/GitHub/flora/public/logo2.svg.png"
         inkscape:export-xdpi="153.31828"
         inkscape:export-ydpi="153.31828"
         clip-path="url(#clipPath2175)" />
      <path
         inkscape:connector-curvature="0"
         d="m 123.035,609.457 c 0.631,0.193 1.242,0.45 1.829,0.774 -0.025,1.105 -1.011,1.224 -1.848,1.448 0.007,-0.555 0.013,-1.667 0.019,-2.222 z"
         id="path148"
         inkscape:export-filename="/home/vitor/Documentos/GitHub/flora/public/logo2.svg.png"
         inkscape:export-xdpi="153.31828"
         inkscape:export-ydpi="153.31828"
         clip-path="url(#clipPath2171)" />
      <path
         inkscape:connector-curvature="0"
         d="m 336.036,610.006 c 0.855,-1.149 2.298,0.013 1.748,1.174 -0.911,0.936 -2.191,-0.05 -1.748,-1.174 z"
         id="path150"
         inkscape:export-filename="/home/vitor/Documentos/GitHub/flora/public/logo2.svg.png"
         inkscape:export-xdpi="153.31828"
         inkscape:export-ydpi="153.31828"
         clip-path="url(#clipPath2167)" />
      <path
         inkscape:connector-curvature="0"
         d="m 231.062,610.736 c 0.762,0.025 2.348,-0.094 1.848,1.13 0.056,0.83 -1.155,0.512 -1.661,0.812 -0.043,-0.487 -0.137,-1.455 -0.187,-1.942 z"
         id="path152"
         inkscape:export-filename="/home/vitor/Documentos/GitHub/flora/public/logo2.svg.png"
         inkscape:export-xdpi="153.31828"
         inkscape:export-ydpi="153.31828"
         clip-path="url(#clipPath2163)" />
      <path
         inkscape:connector-curvature="0"
         d="m 301.59,610.175 c 1.13,0.062 2.035,0.45 1.655,1.761 -0.412,0.069 -1.249,0.2 -1.667,0.262 0,-0.506 0.012,-1.518 0.012,-2.023 z"
         id="path154"
         inkscape:export-filename="/home/vitor/Documentos/GitHub/flora/public/logo2.svg.png"
         inkscape:export-xdpi="153.31828"
         inkscape:export-ydpi="153.31828"
         clip-path="url(#clipPath2159)" />
      <path
         inkscape:connector-curvature="0"
         d="m 147.592,611.111 c 0.537,0.312 1.274,0.406 1.573,1.043 0.156,1.255 -1.093,0.949 -1.886,1.111 0.094,-0.73 0.2,-1.448 0.313,-2.154 z"
         id="path156"
         inkscape:export-filename="/home/vitor/Documentos/GitHub/flora/public/logo2.svg.png"
         inkscape:export-xdpi="153.31828"
         inkscape:export-ydpi="153.31828"
         clip-path="url(#clipPath2155)" />
      <path
         inkscape:connector-curvature="0"
         d="m 290.345,610.924 c 0.656,-0.025 1.236,0.181 1.736,0.631 0.025,1.205 -1.23,1.124 -2.054,1.424 0.081,-0.513 0.237,-1.543 0.318,-2.055 z"
         id="path158"
         inkscape:export-filename="/home/vitor/Documentos/GitHub/flora/public/logo2.svg.png"
         inkscape:export-xdpi="153.31828"
         inkscape:export-ydpi="153.31828"
         clip-path="url(#clipPath2151)" />
      <path
         inkscape:connector-curvature="0"
         d="m 311.012,612.803 c 0.181,-0.968 1.086,-1.074 1.854,-1.286 0.025,0.518 0.069,1.548 0.094,2.06 -0.724,-0.037 -1.53,-0.037 -1.948,-0.774 z"
         id="path160"
         inkscape:export-filename="/home/vitor/Documentos/GitHub/flora/public/logo2.svg.png"
         inkscape:export-xdpi="153.31828"
         inkscape:export-ydpi="153.31828"
         clip-path="url(#clipPath2147)" />
      <path
         inkscape:connector-curvature="0"
         d="m 177.436,612.678 c 1.286,-0.537 1.792,0.381 2.017,1.542 -0.643,0.075 -1.286,0.156 -1.929,0.244 -0.019,-0.443 -0.063,-1.336 -0.088,-1.786 z"
         id="path162"
         inkscape:export-filename="/home/vitor/Documentos/GitHub/flora/public/logo2.svg.png"
         inkscape:export-xdpi="153.31828"
         inkscape:export-ydpi="153.31828"
         clip-path="url(#clipPath2143)" />
      <path
         inkscape:connector-curvature="0"
         d="m 217.851,612.254 c 0.412,-0.013 1.242,-0.044 1.661,-0.056 0.075,0.506 0.15,1.018 0.225,1.542 -0.599,0.075 -1.199,0.156 -1.792,0.244 -0.025,-0.432 -0.069,-1.293 -0.094,-1.73 z"
         id="path164"
         inkscape:export-filename="/home/vitor/Documentos/GitHub/flora/public/logo2.svg.png"
         inkscape:export-xdpi="153.31828"
         inkscape:export-ydpi="153.31828"
         clip-path="url(#clipPath2139)" />
      <path
         inkscape:connector-curvature="0"
         d="m 280.961,612.516 c 0.868,0.206 0.924,1.118 1.174,1.848 -0.549,0.006 -1.648,0.019 -2.204,0.025 0.256,-0.681 0.231,-1.598 1.03,-1.873 z"
         id="path166"
         inkscape:export-filename="/home/vitor/Documentos/GitHub/flora/public/logo2.svg.png"
         inkscape:export-xdpi="153.31828"
         inkscape:export-ydpi="153.31828"
         clip-path="url(#clipPath2135)" />
      <path
         inkscape:connector-curvature="0"
         d="m 269.205,613.565 c 0.943,0 2.029,1.217 0.924,1.811 -1.168,1.048 -2.017,-1.093 -0.924,-1.811 z"
         id="path168"
         inkscape:export-filename="/home/vitor/Documentos/GitHub/flora/public/logo2.svg.png"
         inkscape:export-xdpi="153.31828"
         inkscape:export-ydpi="153.31828"
         clip-path="url(#clipPath2131)" />
      <path
         inkscape:connector-curvature="0"
         d="m 290.139,615.544 c 0.169,-0.774 0.25,-1.667 1.236,-1.823 0.818,0.418 0.693,1.305 0.737,2.06 -0.493,-0.056 -1.479,-0.174 -1.973,-0.237 z"
         id="path170"
         inkscape:export-filename="/home/vitor/Documentos/GitHub/flora/public/logo2.svg.png"
         inkscape:export-xdpi="153.31828"
         inkscape:export-ydpi="153.31828"
         clip-path="url(#clipPath2127)" />
      <path
         inkscape:connector-curvature="0"
         d="m 112.802,615.276 c 0.568,-0.094 1.143,-0.175 1.717,-0.25 0.025,0.631 0.025,1.274 0.006,1.929 -0.4,0.069 -1.199,0.206 -1.598,0.281 -0.031,-0.493 -0.094,-1.473 -0.125,-1.96 z"
         id="path172"
         inkscape:export-filename="/home/vitor/Documentos/GitHub/flora/public/logo2.svg.png"
         inkscape:export-xdpi="153.31828"
         inkscape:export-ydpi="153.31828"
         clip-path="url(#clipPath2123)" />
      <path
         inkscape:connector-curvature="0"
         d="m 205.551,615.07 c 1.761,-1.143 2.135,2.591 0.287,1.854 -0.705,0.206 -1.192,-2.085 -0.287,-1.854 z"
         id="path174"
         inkscape:export-filename="/home/vitor/Documentos/GitHub/flora/public/logo2.svg.png"
         inkscape:export-xdpi="153.31828"
         inkscape:export-ydpi="153.31828"
         clip-path="url(#clipPath2119)" />
      <path
         inkscape:connector-curvature="0"
         d="m 320.227,614.901 c 1.392,-0.793 2.192,1.592 0.712,1.754 -1.011,0.469 -1.448,-1.248 -0.712,-1.754 z"
         id="path176"
         inkscape:export-filename="/home/vitor/Documentos/GitHub/flora/public/logo2.svg.png"
         inkscape:export-xdpi="153.31828"
         inkscape:export-ydpi="153.31828"
         clip-path="url(#clipPath2115)" />
      <path
         inkscape:connector-curvature="0"
         d="m 158.449,616.968 c 0,-0.637 0.169,-1.211 0.499,-1.729 0.799,0.231 1.567,0.568 2.335,0.905 -0.861,0.574 -1.754,1.442 -2.834,0.824 z"
         id="path178"
         inkscape:export-filename="/home/vitor/Documentos/GitHub/flora/public/logo2.svg.png"
         inkscape:export-xdpi="153.31828"
         inkscape:export-ydpi="153.31828"
         clip-path="url(#clipPath2111)" />
      <path
         inkscape:connector-curvature="0"
         d="m 329.237,618.085 c -0.243,-1.224 0.375,-1.992 1.623,-2.048 0.031,0.637 0.062,1.274 0.094,1.923 -0.431,0.032 -1.286,0.094 -1.717,0.125 z"
         id="path180"
         inkscape:export-filename="/home/vitor/Documentos/GitHub/flora/public/logo2.svg.png"
         inkscape:export-xdpi="153.31828"
         inkscape:export-ydpi="153.31828"
         clip-path="url(#clipPath2107)" />
      <path
         inkscape:connector-curvature="0"
         d="m 98.966,618.191 c 0.194,-0.805 0.481,-2.06 1.605,-1.486 0.125,0.412 0.381,1.23 0.512,1.642 -0.531,-0.037 -1.592,-0.112 -2.117,-0.156 z"
         id="path182"
         inkscape:export-filename="/home/vitor/Documentos/GitHub/flora/public/logo2.svg.png"
         inkscape:export-xdpi="153.31828"
         inkscape:export-ydpi="153.31828"
         clip-path="url(#clipPath2103)" />
      <path
         inkscape:connector-curvature="0"
         d="m 124.921,618.148 c 1.143,-0.3 2.073,1.461 0.743,1.923 -1.261,1.161 -2.254,-1.436 -0.743,-1.923 z"
         id="path184"
         inkscape:export-filename="/home/vitor/Documentos/GitHub/flora/public/logo2.svg.png"
         inkscape:export-xdpi="153.31828"
         inkscape:export-ydpi="153.31828"
         clip-path="url(#clipPath2099)" />
      <path
         inkscape:connector-curvature="0"
         d="m 53.731,619.602 c 0.356,-0.824 1.242,-0.893 1.985,-1.086 -0.019,0.674 -0.081,1.349 -0.187,2.029 -0.817,0.194 -1.504,-0.112 -1.798,-0.943 z"
         id="path186"
         inkscape:export-filename="/home/vitor/Documentos/GitHub/flora/public/logo2.svg.png"
         inkscape:export-xdpi="153.31828"
         inkscape:export-ydpi="153.31828"
         clip-path="url(#clipPath2095)" />
      <path
         inkscape:connector-curvature="0"
         d="m 246.59,618.51 c 0.674,-0.006 1.342,0.031 2.017,0.106 -0.031,0.762 -0.019,1.686 -1.018,1.836 -0.818,-0.319 -0.73,-1.287 -0.999,-1.942 z"
         id="path188"
         inkscape:export-filename="/home/vitor/Documentos/GitHub/flora/public/logo2.svg.png"
         inkscape:export-xdpi="153.31828"
         inkscape:export-ydpi="153.31828"
         clip-path="url(#clipPath2091)" />
      <path
         inkscape:connector-curvature="0"
         d="m 310.431,618.884 c 0.549,0.012 1.099,0.031 1.661,0.062 -0.037,0.581 -0.075,1.168 -0.106,1.761 -0.4,-0.025 -1.186,-0.075 -1.586,-0.106 0.006,-0.58 0.019,-1.155 0.031,-1.717 z"
         id="path190"
         inkscape:export-filename="/home/vitor/Documentos/GitHub/flora/public/logo2.svg.png"
         inkscape:export-xdpi="153.31828"
         inkscape:export-ydpi="153.31828"
         clip-path="url(#clipPath2087)" />
      <path
         inkscape:connector-curvature="0"
         d="m 73.817,621.451 c 0.025,-0.805 -0.106,-1.779 0.824,-2.104 1.043,0.137 1.205,1.155 1.455,2.01 -0.568,0.025 -1.711,0.068 -2.279,0.094 z"
         id="path192"
         inkscape:export-filename="/home/vitor/Documentos/GitHub/flora/public/logo2.svg.png"
         inkscape:export-xdpi="153.31828"
         inkscape:export-ydpi="153.31828"
         clip-path="url(#clipPath2083)" />
      <path
         inkscape:connector-curvature="0"
         d="m 90.1,619.065 c 1.349,-0.306 2.204,0.131 2.179,1.592 -0.706,0.006 -1.411,0.019 -2.11,0.044 -0.019,-0.406 -0.05,-1.23 -0.069,-1.636 z"
         id="path194"
         inkscape:export-filename="/home/vitor/Documentos/GitHub/flora/public/logo2.svg.png"
         inkscape:export-xdpi="153.31828"
         inkscape:export-ydpi="153.31828"
         clip-path="url(#clipPath2079)" />
      <path
         inkscape:connector-curvature="0"
         d="m 136.79,619.996 c 1.105,-1.08 1.854,0.387 1.505,1.498 -1.037,0.325 -2.485,-0.437 -1.505,-1.498 z"
         id="path196"
         inkscape:export-filename="/home/vitor/Documentos/GitHub/flora/public/logo2.svg.png"
         inkscape:export-xdpi="153.31828"
         inkscape:export-ydpi="153.31828"
         clip-path="url(#clipPath2075)" />
      <path
         inkscape:connector-curvature="0"
         d="m 157.275,620.002 c 1.33,-0.356 1.336,2.385 -0.119,1.836 -1.123,0.212 -0.873,-1.98 0.119,-1.836 z"
         id="path198"
         inkscape:export-filename="/home/vitor/Documentos/GitHub/flora/public/logo2.svg.png"
         inkscape:export-xdpi="153.31828"
         inkscape:export-ydpi="153.31828"
         clip-path="url(#clipPath2071)" />
      <path
         inkscape:connector-curvature="0"
         d="m 264.809,620.589 c 0.219,-0.144 0.656,-0.437 0.874,-0.581 0.237,0.112 0.712,0.337 0.943,0.45 -0.006,0.362 -0.019,1.086 -0.031,1.448 -0.356,0.031 -1.061,0.081 -1.417,0.106 -0.125,-0.48 -0.25,-0.955 -0.369,-1.423 z"
         id="path200"
         inkscape:export-filename="/home/vitor/Documentos/GitHub/flora/public/logo2.svg.png"
         inkscape:export-xdpi="153.31828"
         inkscape:export-ydpi="153.31828"
         clip-path="url(#clipPath2067)" />
      <path
         inkscape:connector-curvature="0"
         d="m 282.828,619.858 c 1.611,-0.468 1.561,0.849 1.424,2.073 -1.087,-0.206 -2.41,-0.811 -1.424,-2.073 z"
         id="path202"
         inkscape:export-filename="/home/vitor/Documentos/GitHub/flora/public/logo2.svg.png"
         inkscape:export-xdpi="153.31828"
         inkscape:export-ydpi="153.31828"
         clip-path="url(#clipPath2063)" />
      <path
         inkscape:connector-curvature="0"
         d="m 298.031,620.907 c -0.212,-1.018 1.168,-0.687 1.736,-0.98 0,0.706 0,1.43 -0.006,2.154 -0.662,-0.306 -2.104,-0.081 -1.73,-1.174 z"
         id="path204"
         inkscape:export-filename="/home/vitor/Documentos/GitHub/flora/public/logo2.svg.png"
         inkscape:export-xdpi="153.31828"
         inkscape:export-ydpi="153.31828"
         clip-path="url(#clipPath2059)" />
      <path
         inkscape:connector-curvature="0"
         d="m 274.174,620.62 c 0.98,-0.955 2.335,0.025 1.723,1.236 -1.011,0.849 -2.197,-0.056 -1.723,-1.236 z"
         id="path206"
         inkscape:export-filename="/home/vitor/Documentos/GitHub/flora/public/logo2.svg.png"
         inkscape:export-xdpi="153.31828"
         inkscape:export-ydpi="153.31828"
         clip-path="url(#clipPath2055)" />
      <path
         inkscape:connector-curvature="0"
         d="m 82.421,621.975 c 1.024,-0.144 2.335,0.487 1.592,1.729 -0.387,0.069 -1.168,0.2 -1.555,0.269 -0.012,-0.5 -0.031,-1.499 -0.037,-1.998 z"
         id="path208"
         inkscape:export-filename="/home/vitor/Documentos/GitHub/flora/public/logo2.svg.png"
         inkscape:export-xdpi="153.31828"
         inkscape:export-ydpi="153.31828"
         clip-path="url(#clipPath2051)" />
      <path
         inkscape:connector-curvature="0"
         d="m 187.301,621.806 c 0.45,-0.019 1.355,-0.069 1.804,-0.094 0.156,1.286 -0.487,2.023 -1.792,1.904 -0.006,-0.449 -0.012,-1.354 -0.012,-1.81 z"
         id="path210"
         inkscape:export-filename="/home/vitor/Documentos/GitHub/flora/public/logo2.svg.png"
         inkscape:export-xdpi="153.31828"
         inkscape:export-ydpi="153.31828"
         clip-path="url(#clipPath2047)" />
      <path
         inkscape:connector-curvature="0"
         d="m 204.215,621.532 c 0.774,0.187 1.648,0.312 1.904,1.242 -0.443,0.762 -1.274,0.768 -2.023,0.805 0.031,-0.511 0.088,-1.535 0.119,-2.047 z"
         id="path212"
         inkscape:export-filename="/home/vitor/Documentos/GitHub/flora/public/logo2.svg.png"
         inkscape:export-xdpi="153.31828"
         inkscape:export-ydpi="153.31828"
         clip-path="url(#clipPath2043)" />
      <path
         inkscape:connector-curvature="0"
         d="m 279.113,623.53 c 0.194,-1.236 0.83,-1.948 2.079,-1.542 -0.037,0.437 -0.112,1.311 -0.15,1.748 -0.649,-0.082 -1.292,-0.144 -1.929,-0.206 z"
         id="path214"
         inkscape:export-filename="/home/vitor/Documentos/GitHub/flora/public/logo2.svg.png"
         inkscape:export-xdpi="153.31828"
         inkscape:export-ydpi="153.31828"
         clip-path="url(#clipPath2039)" />
      <path
         inkscape:connector-curvature="0"
         d="m 164.387,623.692 c -0.368,-1.08 1.049,-1.055 1.736,-1.086 -0.025,0.506 -0.081,1.517 -0.106,2.023 -0.519,-0.338 -1.699,-0.113 -1.63,-0.937 z"
         id="path216"
         inkscape:export-filename="/home/vitor/Documentos/GitHub/flora/public/logo2.svg.png"
         inkscape:export-xdpi="153.31828"
         inkscape:export-ydpi="153.31828"
         clip-path="url(#clipPath2035)" />
      <path
         inkscape:connector-curvature="0"
         d="m 218.138,622.312 c 0.4,0.044 1.193,0.137 1.586,0.181 0.025,0.424 0.075,1.28 0.106,1.704 -1.311,0.307 -2.073,-0.649 -1.692,-1.885 z"
         id="path218"
         inkscape:export-filename="/home/vitor/Documentos/GitHub/flora/public/logo2.svg.png"
         inkscape:export-xdpi="153.31828"
         inkscape:export-ydpi="153.31828"
         clip-path="url(#clipPath2031)" />
      <path
         inkscape:connector-curvature="0"
         d="m 243.924,622.849 c 0.643,0.618 1.661,1.199 1.024,2.229 -0.393,-0.006 -1.168,-0.013 -1.561,-0.019 -0.281,-0.824 0.181,-1.523 0.537,-2.21 z"
         id="path220"
         inkscape:export-filename="/home/vitor/Documentos/GitHub/flora/public/logo2.svg.png"
         inkscape:export-xdpi="153.31828"
         inkscape:export-ydpi="153.31828"
         clip-path="url(#clipPath2027)" />
      <path
         inkscape:connector-curvature="0"
         d="m 96.313,625.459 c 0.187,-1.124 0.443,-2.354 1.842,-1.836 0.056,0.4 0.162,1.205 0.219,1.605 -0.681,0.144 -1.374,0.162 -2.061,0.231 z"
         id="path222"
         inkscape:export-filename="/home/vitor/Documentos/GitHub/flora/public/logo2.svg.png"
         inkscape:export-xdpi="153.31828"
         inkscape:export-ydpi="153.31828"
         clip-path="url(#clipPath2023)" />
      <path
         inkscape:connector-curvature="0"
         d="m 108.613,623.654 c 0.93,-1.143 2.266,0.318 1.33,1.324 -0.35,1.268 -2.554,-0.868 -1.33,-1.324 z"
         id="path224"
         inkscape:export-filename="/home/vitor/Documentos/GitHub/flora/public/logo2.svg.png"
         inkscape:export-xdpi="153.31828"
         inkscape:export-ydpi="153.31828"
         clip-path="url(#clipPath2019)" />
      <path
         inkscape:connector-curvature="0"
         d="m 233.747,626.558 c 0.425,0.037 1.274,0.106 1.698,0.137 -0.006,0.443 -0.019,1.324 -0.025,1.761 -1.411,0.131 -1.954,-0.587 -1.673,-1.898 z"
         id="path226"
         inkscape:export-filename="/home/vitor/Documentos/GitHub/flora/public/logo2.svg.png"
         inkscape:export-xdpi="153.31828"
         inkscape:export-ydpi="153.31828"
         clip-path="url(#clipPath2015)" />
      <path
         inkscape:connector-curvature="0"
         d="m 165.554,628.3 c 0.643,0.044 1.286,0.106 1.936,0.181 0.1,1.336 -0.549,1.992 -1.911,1.773 -0.006,-0.487 -0.018,-1.467 -0.025,-1.954 z"
         id="path228"
         inkscape:export-filename="/home/vitor/Documentos/GitHub/flora/public/logo2.svg.png"
         inkscape:export-xdpi="153.31828"
         inkscape:export-ydpi="153.31828"
         clip-path="url(#clipPath2011)" />
      <path
         inkscape:connector-curvature="0"
         d="m 246.984,629.698 c -0.156,-1.13 1.205,-0.624 1.804,-0.868 -0.05,0.518 -0.156,1.561 -0.206,2.085 -0.637,-0.299 -1.73,-0.218 -1.598,-1.217 z"
         id="path230"
         inkscape:export-filename="/home/vitor/Documentos/GitHub/flora/public/logo2.svg.png"
         inkscape:export-xdpi="153.31828"
         inkscape:export-ydpi="153.31828"
         clip-path="url(#clipPath2007)" />
      <path
         inkscape:connector-curvature="0"
         d="m 168.745,632.246 c 0.318,-0.556 -0.256,-2.217 0.905,-1.923 0.88,-0.3 0.818,0.999 1.23,1.467 -0.53,0.119 -1.598,0.343 -2.135,0.456 z"
         id="path232"
         inkscape:export-filename="/home/vitor/Documentos/GitHub/flora/public/logo2.svg.png"
         inkscape:export-xdpi="153.31828"
         inkscape:export-ydpi="153.31828"
         clip-path="url(#clipPath2003)" />
      <path
         inkscape:connector-curvature="0"
         d="m 198.084,631.29 c 0.568,-0.006 1.13,-0.006 1.704,0.006 0.062,0.662 0.125,1.33 0.187,2.01 -0.662,-0.075 -1.317,-0.137 -1.973,-0.193 0.025,-0.618 0.05,-1.223 0.082,-1.823 z"
         id="path234"
         inkscape:export-filename="/home/vitor/Documentos/GitHub/flora/public/logo2.svg.png"
         inkscape:export-xdpi="153.31828"
         inkscape:export-ydpi="153.31828"
         clip-path="url(#clipPath1999)" />
      <path
         inkscape:connector-curvature="0"
         d="m 237.069,635.811 c -0.094,-1.224 0.955,-2.647 2.023,-1.274 0.193,1.43 -1.012,1.293 -2.023,1.274 z"
         id="path236"
         inkscape:export-filename="/home/vitor/Documentos/GitHub/flora/public/logo2.svg.png"
         inkscape:export-xdpi="153.31828"
         inkscape:export-ydpi="153.31828"
         clip-path="url(#clipPath1995)" />
      <path
         inkscape:connector-curvature="0"
         d="m 185.659,637.091 c 0.05,-0.768 -0.268,-1.786 0.78,-2.042 0.843,0.225 0.862,1.111 1.124,1.792 -0.474,0.062 -1.423,0.187 -1.904,0.25 z"
         id="path238"
         inkscape:export-filename="/home/vitor/Documentos/GitHub/flora/public/logo2.svg.png"
         inkscape:export-xdpi="153.31828"
         inkscape:export-ydpi="153.31828"
         clip-path="url(#clipPath1991)" />
      <path
         inkscape:connector-curvature="0"
         d="m 212.737,635.43 c 1.28,-1.399 2.641,1.299 1.111,1.592 -1.273,0.487 -1.142,-0.737 -1.111,-1.592 z"
         id="path240"
         inkscape:export-filename="/home/vitor/Documentos/GitHub/flora/public/logo2.svg.png"
         inkscape:export-xdpi="153.31828"
         inkscape:export-ydpi="153.31828"
         clip-path="url(#clipPath1987)" />
    </g>
  </g>
</svg>
